<svg xmlns="http://www.w3.org/2000/svg" id="icon-ventus-trade-wartosc" viewBox="0 0 34 32">
<path d="M0.052 25.359c0-6.2 0.016-6.571 0.28-6.464 2.468 1.001 4.274 0.978 4.831-0.062 0.103-0.193 0.078-0.569-0.077-1.152-0.44-1.654-0.214-2.403 0.811-2.686 0.801-0.221 1.616 0.043 1.915 0.62s0.301 1.119 0.006 2.226c-0.461 1.73 0.336 2.078 3.497 1.525 0.854-0.149 1.481-0.191 1.568-0.103 0.269 0.269 0.605 1.865 0.607 2.884 0.003 1.672-0.293 1.903-1.678 1.309-0.411-0.176-0.888-0.32-1.061-0.32-1.019 0-1.899 1.169-1.899 2.524 0 0.639 0.078 0.851 0.44 1.196 0.874 0.834 1.686 0.902 2.972 0.251 0.48-0.243 0.662-0.269 0.84-0.121 0.28 0.232 0.285 0.675 0.036 3.070l-0.196 1.88h-12.892zM13.915 31.82l-0.457-0.068 0.137-0.908c0.075-0.499 0.137-1.536 0.137-2.304 0-1.229-0.043-1.438-0.355-1.751l-0.355-0.355-1.085 0.353c-1.377 0.448-1.727 0.441-2.212-0.044-0.32-0.32-0.393-0.553-0.393-1.258 0-1.588 0.781-2.094 2.393-1.551 1.188 0.4 1.485 0.403 1.833 0.019 0.336-0.371 0.371-1.93 0.079-3.563-0.108-0.603-0.166-1.124-0.13-1.159s0.606 0.034 1.266 0.152c1.26 0.227 3.316 0.301 3.747 0.136 0.401-0.154 0.298-0.522-0.307-1.093-0.509-0.48-0.56-0.608-0.56-1.417 0-0.713 0.079-0.982 0.397-1.36 1.022-1.215 3.12-0.447 3.123 1.142 0 0.25-0.152 0.958-0.339 1.573-0.193 0.635-0.279 1.178-0.2 1.256 0.077 0.076 0.57 0.207 1.096 0.289 1.164 0.182 2.294-0.070 3.564-0.797 0.472-0.27 0.887-0.462 0.922-0.427s0.114 3.031 0.176 6.657l0.112 6.593-6.066-0.024c-3.336-0.013-6.271-0.055-6.522-0.092zM8.926 19.304c-0.673-0.273-0.79-0.592-0.584-1.589 0.249-1.203 0.239-1.698-0.043-2.244-0.372-0.719-1.593-1.099-2.633-0.818-1.188 0.32-1.583 1.499-1.038 3.098 0.417 1.223 0.336 1.28-1.659 1.18-0.944-0.047-1.987-0.177-2.317-0.287l-0.6-0.201v-12.906l6.040 0.002c3.322 0.001 6.202 0.045 6.399 0.098 0.483 0.129 0.834 1.309 0.946 3.179 0.064 1.078 0.031 1.512-0.132 1.727-0.208 0.274-0.268 0.268-1.299-0.12-2.235-0.841-2.994-0.399-2.994 1.743 0 0.928 0.052 1.104 0.465 1.566 0.571 0.639 1.269 0.672 2.557 0.118 0.847-0.364 0.865-0.365 1.096-0.062 0.19 0.249 0.219 0.71 0.152 2.389-0.046 1.144-0.128 2.194-0.183 2.334-0.069 0.176-0.631 0.361-1.822 0.6-1.902 0.382-1.887 0.381-2.349 0.194zM25.031 17.676c-1.608-0.267-3.219-1.234-3.219-1.932 0-0.179 0.339-0.509 0.875-0.852 1.037-0.663 1.205-0.931 1.205-1.921 0-0.968-0.387-1.601-1.226-2.008-1.277-0.618-2.629 0.087-2.855 1.491-0.149 0.927-0.465 1.397-0.868 1.291-0.368-0.096-2.891-2.668-2.891-2.948 0-0.102 0.414-0.648 0.92-1.213 1.553-1.734 1.96-2.309 1.96-2.771 0-0.57-0.267-0.775-1.168-0.898-1.525-0.209-2.146-1.065-1.718-2.364 0.191-0.578 0.88-1.276 1.433-1.452 0.584-0.185 1.403 0.326 2.026 1.264 0.326 0.491 0.71 0.892 0.854 0.892 0.701 0 1.71-1.287 2.351-2.998 0.223-0.595 0.454-1.131 0.513-1.192 0.104-0.106 9.871 6.767 10.487 7.38 0.292 0.29 0.271 0.337-0.869 1.954-4.62 6.554-5.825 8.173-6.181 8.308-0.436 0.166-0.437 0.166-1.63-0.032z"></path>
</svg>