<svg xmlns="http://www.w3.org/2000/svg" id="icon-ventus-trade-innowacja" viewBox="0 0 19 32">
<path d="M8.037 31.773c-0.567-0.315-2.322-2.372-2.161-2.533 0.078-0.078 1.776-0.123 3.773-0.099l3.631 0.043-2.419 2.8-1.232-0.006c-0.678-0.003-1.394-0.095-1.591-0.205zM5.515 27.663c-0.233-0.258-0.256-0.395-0.119-0.697 0.234-0.514 0.704-0.582 4.039-0.582s3.805 0.068 4.039 0.582c0.138 0.303 0.115 0.44-0.119 0.697-0.274 0.303-0.491 0.321-3.921 0.321s-3.646-0.018-3.921-0.321zM6.027 25.315c-0.631-0.104-0.907-0.735-0.512-1.171 0.274-0.303 0.491-0.321 3.934-0.321 3.099 0 3.681 0.038 3.895 0.251 0.311 0.311 0.317 0.557 0.024 0.958-0.211 0.289-0.46 0.312-3.56 0.333-1.833 0.013-3.535-0.011-3.782-0.051zM4.843 21.624c-0.143-0.868-0.546-1.8-2.051-4.747-2.197-4.302-2.621-5.429-2.74-7.293-0.169-2.643 0.56-4.729 2.295-6.569 1.894-2.008 3.704-2.845 6.448-2.981 3.036-0.15 5.242 0.603 7.213 2.463 1.875 1.768 2.627 3.365 2.813 5.968 0.158 2.214-0.212 3.369-2.59 8.079-1.618 3.204-2.055 4.215-2.2 5.080l-0.181 1.080h-2.815l0.002-0.76c0.004-1.538 0.634-3.18 2.667-6.946 1.855-3.436 2.186-4.431 2.094-6.289-0.123-2.469-1.092-3.998-3.19-5.031-2.024-0.997-4.323-0.997-6.347 0-3.016 1.485-4.066 4.73-2.655 8.205 0.219 0.539 0.972 2.032 1.673 3.317 1.898 3.479 2.556 5.247 2.556 6.871v0.632h-2.815zM8.316 16.282c0-0.1 0.224-0.946 0.498-1.88s0.534-1.824 0.579-1.978c0.073-0.252-0.065-0.28-1.378-0.28-0.831 0-1.459-0.066-1.459-0.155 0-0.24 4.604-6.773 4.884-6.929 0.297-0.166 0.268-0.004-0.42 2.351-0.255 0.873-0.423 1.628-0.373 1.677s0.626 0.117 1.28 0.151c0.654 0.033 1.189 0.116 1.189 0.185 0 0.104-2.403 3.86-4.069 6.36-0.444 0.666-0.731 0.861-0.731 0.498z"></path>
</svg>