<svg xmlns="http://www.w3.org/2000/svg" id="icon-ventus-trade-dywersyfikacja" viewBox="0 0 32 32">
<path d="M13.232 31.798c-6.315-1.197-11.149-5.721-12.75-11.933-1.747-6.779 1.428-14.145 7.621-17.677 1.984-1.132 4.132-1.831 6.33-2.060l1.080-0.113v16.744l11.214 11.218-1.167 0.842c-1.604 1.156-4.083 2.329-5.807 2.746-1.873 0.453-4.811 0.559-6.522 0.235zM19.274 29.188c1.218-0.329 2.705-0.927 3.247-1.308 0.332-0.233 0.202-0.383-4.525-5.2l-4.867-4.96-0.007-7.48c-0.004-4.114-0.031-7.48-0.061-7.48-0.284 0-2.34 0.78-3.218 1.221-1.503 0.755-2.39 1.43-3.726 2.836-3.226 3.396-4.418 8.067-3.237 12.685 0.625 2.445 1.815 4.432 3.777 6.308 2.129 2.036 4.3 3.14 7.231 3.677 1.139 0.209 4.117 0.043 5.387-0.299zM21.873 21.999c-2.881-2.883-5.239-5.287-5.239-5.343 0-0.158 15.16-0.17 15.258-0.012 0.113 0.182-0.157 2.079-0.483 3.396-0.361 1.462-1.301 3.576-2.133 4.798-0.71 1.044-1.877 2.402-2.064 2.402-0.055 0-2.458-2.358-5.34-5.241zM16.421 15.613c-0.137-0.137-0.138-9.756-0.001-13.058l0.105-2.525 0.975 0.105c3.832 0.415 7.069 2.007 9.855 4.85 2.472 2.522 3.868 5.338 4.39 8.855 0.137 0.924 0.25 1.726 0.25 1.78 0 0.135-15.439 0.128-15.573-0.007z"></path>
</svg>