<svg xmlns="http://www.w3.org/2000/svg" id="icon-vt-logo-full" viewBox="0 0 31 32">
<path fill="#fff"   d="M31.092 0.104l-0.67 0.426c-0.003 0.004 0.668-0.425 0.66-0.418-0.14 0.136-15.3 12.586-15.324 12.586-0.014 0-0.023-0.639-0.023-1.418v-1.416l-0.242-0.004v1.42c0 0.78-0.017 1.416-0.037 1.414s-3.429-2.798-7.576-6.213v-0.002c-4.147-3.416-7.568-6.241-7.602-6.279-0.058-0.065 2.579 1.62 5.537 3.504l-5.598-3.561c0.065 0.533 0.145 1.068 0.229 1.603 0.050 0.173 0.639 2.903 1.402 6.527l1.439 6.832-0.055 2.043c-0.034 1.289-0.044 1.3-0.059 1.58l-0.016 0.828 0.676 3.535 0.029 0.023c0.009 0 0.004-0.011 0.045 0.014 0.066 0.040 2.7 1.546 5.852 3.346l5.732 3.273v1.078c0 0.586-0.015 1.053-0.035 1.064l0.008 0.006h0.293l0.004-0.002c-0.015-0.012-0.027-0.481-0.027-1.066v-1.080l5.73-3.271c3.152-1.8 5.788-3.308 5.854-3.348 0.038-0.023 0.030-0.010 0.041-0.012l0.037-0.029 0.66-3.547v-0.141c-0.007-0.074-0.016-0.132-0.016-0.313-0-0.264-0.024-1.267-0.053-2.229l-0.053-1.748 1.439-6.836c0.79-3.753 1.442-6.782 1.451-6.758zM23.909 11.684c-0.102 0.138-7.993 9.678-8.084 9.771-0.089 0.093-0.090 0.074-0.090-1.043v-1.137l3.752-3.494c2.064-1.922 3.914-3.646 4.113-3.832s0.338-0.306 0.309-0.266zM7.338 11.712c-0.039-0.054 0.093 0.053 0.291 0.238s2.047 1.909 4.111 3.83l3.752 3.494v1.127c0 0.62-0.008 1.129-0.018 1.129s-1.831-2.187-4.043-4.859c-2.212-2.672-4.055-4.905-4.094-4.959zM7.838 12.698c0.012 0 1.739 2.084 3.838 4.633l3.818 4.635-0.027 3.023-3.498-5.619c-4.299-6.905-4.157-6.672-4.131-6.672zM23.387 12.698c0.026 0 0.218-0.311-4.033 6.516-1.893 3.040-3.482 5.591-3.531 5.67-0.088 0.143-0.088 0.123-0.088-1.387v-1.533l3.814-4.633c2.099-2.548 3.827-4.633 3.838-4.633z"></path>
<path fill="#000"   d="M14.746 31.385c-0.372-0.285-2.967-2.253-5.768-4.373s-5.114-3.877-5.14-3.905c-0.027-0.027 0.006-0.017 0.072 0.023s2.7 1.546 5.852 3.346l5.732 3.273v1.079c0 0.594-0.016 1.078-0.036 1.077s-0.34-0.235-0.712-0.52zM15.735 30.829v-1.079l5.732-3.273c3.152-1.8 5.786-3.306 5.852-3.346s0.099-0.050 0.072-0.022c-0.079 0.083-11.598 8.8-11.628 8.8-0.015 0-0.028-0.486-0.028-1.079zM11.97 19.371c-4.299-6.905-4.156-6.673-4.13-6.673 0.012 0 1.739 2.085 3.838 4.634l3.817 4.634-0.026 3.024zM15.735 23.497v-1.533l3.816-4.633c2.099-2.548 3.826-4.633 3.837-4.633 0.026 0 0.218-0.311-4.033 6.516-1.893 3.040-3.482 5.592-3.531 5.671-0.088 0.143-0.089 0.122-0.089-1.388zM11.433 16.671c-2.213-2.673-4.055-4.905-4.094-4.959s0.093 0.053 0.291 0.238c0.198 0.186 2.048 1.91 4.112 3.831l3.752 3.493v1.128c0 0.62-0.008 1.128-0.018 1.128s-1.829-2.187-4.042-4.86zM15.735 20.414v-1.138l3.752-3.494c2.064-1.922 3.915-3.646 4.114-3.832s0.338-0.305 0.309-0.265c-0.102 0.138-7.993 9.678-8.084 9.772-0.089 0.093-0.091 0.074-0.091-1.043zM3.146 19.542c-0.045-0.181-2.759-17.986-2.749-18.034 0.007-0.036 0.661 3.009 1.452 6.767l1.439 6.832-0.054 2.042c-0.051 1.952-0.071 2.469-0.089 2.394zM28.043 19.089c0-0.263-0.024-1.266-0.053-2.228l-0.053-1.749 1.44-6.836c0.792-3.76 1.446-6.806 1.453-6.77 0.016 0.079-2.733 18.005-2.765 18.038-0.013 0.013-0.023-0.192-0.023-0.456zM7.881 6.48c-4.147-3.416-7.568-6.241-7.602-6.279-0.080-0.090-0.91-0.615 7.697 4.87l7.517 4.79v1.419c0 0.78-0.016 1.417-0.036 1.415s-3.429-2.799-7.576-6.214zM15.735 11.281v-1.417l7.107-4.529c8.393-5.349 8.334-5.311 8.241-5.222-0.14 0.136-15.299 12.585-15.323 12.585-0.014 0-0.025-0.638-0.025-1.417zM30.85 1.308c-20.567-0.872-10.283-0.436 0 0z"></path>
</svg>