<?xml version="1.0" encoding="UTF-8" standalone="no"?>
<svg
   xmlns:dc="http://purl.org/dc/elements/1.1/"
   xmlns:cc="http://creativecommons.org/ns#"
   xmlns:rdf="http://www.w3.org/1999/02/22-rdf-syntax-ns#"
   xmlns:svg="http://www.w3.org/2000/svg"
   xmlns="http://www.w3.org/2000/svg"
   xmlns:sodipodi="http://sodipodi.sourceforge.net/DTD/sodipodi-0.dtd"
   xmlns:inkscape="http://www.inkscape.org/namespaces/inkscape"
   version="1.1"
   id="svg2"
   width="259.60001"
   height="265.20001"
   viewBox="0 0 259.60001 265.20001"
   sodipodi:docname="ventus-trade-logo.svg"
   inkscape:version="1.0.2-2 (e86c870879, 2021-01-15)">
  <metadata
     id="metadata8">
    <rdf:RDF>
      <cc:Work
         rdf:about="">
        <dc:format>image/svg+xml</dc:format>
        <dc:type
           rdf:resource="http://purl.org/dc/dcmitype/StillImage" />
        <dc:title></dc:title>
      </cc:Work>
    </rdf:RDF>
  </metadata>
  <defs
     id="defs6" />
  <sodipodi:namedview
     pagecolor="#ffffff"
     bordercolor="#666666"
     borderopacity="1"
     objecttolerance="10"
     gridtolerance="10"
     guidetolerance="10"
     inkscape:pageopacity="0"
     inkscape:pageshadow="2"
     inkscape:window-width="1366"
     inkscape:window-height="705"
     id="namedview4"
     showgrid="false"
     inkscape:zoom="1.0143288"
     inkscape:cx="100.20686"
     inkscape:cy="190.9898"
     inkscape:window-x="-8"
     inkscape:window-y="-8"
     inkscape:window-maximized="1"
     inkscape:current-layer="g10" />
  <g
     inkscape:groupmode="layer"
     inkscape:label="Image"
     id="g10">
    <path
       style="fill:#000000;stroke-width:0.4"
       d="M 122.2045,260.10486 C 119.1245,257.74333 97.614503,241.43387 74.404502,223.86162 51.194501,206.28937 32.0245,191.72706 31.8045,191.50092 c -0.22,-0.22613 0.05,-0.14021 0.6,0.19094 0.55,0.33116 22.375001,12.80931 48.500002,27.72924 l 47.499998,27.12715 v 8.94414 c 0,4.91928 -0.135,8.9356 -0.3,8.92515 -0.165,-0.0104 -2.82,-1.95115 -5.9,-4.31268 z m 8.20001,-4.61247 v -8.94414 l 47.5,-27.12715 c 26.125,-14.91993 47.95,-27.39808 48.5,-27.72924 0.55,-0.33115 0.82,-0.41298 0.6,-0.18184 -0.65213,0.68516 -96.1147,72.92651 -96.36796,72.92651 -0.12762,0 -0.23204,-4.02486 -0.23204,-8.94414 z M 99.204503,160.53775 c -35.62935,-57.22133 -34.441009,-55.30123 -34.225465,-55.30123 0.09748,0 14.410604,17.28238 31.806957,38.40529 l 31.629735,38.40528 -0.10561,12.53258 -0.10562,12.53257 z M 130.406,194.735 130.405,182.03347 162.02912,143.635 c 17.39277,-21.11916 31.70398,-38.39848 31.80218,-38.39848 0.21513,0 1.80818,-2.57364 -33.4251,54.00001 -15.68798,25.19 -28.85549,46.34 -29.26115,47 -0.72646,1.18196 -0.73758,1.00904 -0.73905,-11.50153 z M 94.754059,138.16022 C 76.411802,116.00825 61.145413,97.513256 60.828753,97.060216 c -0.316664,-0.45303 0.766964,0.43631 2.40806,1.97631 1.641093,1.539994 16.975181,15.828234 34.07575,31.751644 l 31.091937,28.95164 v 9.34836 c 0,5.1416 -0.0677,9.34836 -0.15044,9.34836 -0.0827,0 -15.15774,-18.12434 -33.500001,-40.27631 z m 35.650451,31.02369 v -9.4304 l 31.09377,-28.95849 c 17.10157,-15.92718 32.4449,-30.2185 34.09628,-31.758494 1.65139,-1.54 2.80328,-2.53 2.55978,-2.2 -0.84449,1.14443 -66.2431,80.204014 -66.99455,80.988884 -0.74133,0.77432 -0.75528,0.61467 -0.75528,-8.6415 z M 26.074383,161.95474 C 25.702712,160.45609 3.2133394,12.899744 3.2950724,12.496071 c 0.06019,-0.297247 5.477003,24.937515 12.0373736,56.077255 l 11.927948,56.617704 -0.445813,16.92275 c -0.426196,16.17807 -0.586036,20.46258 -0.740198,19.84096 z m 206.330277,-3.75155 c 8e-5,-2.18166 -0.19598,-10.48948 -0.4357,-18.46182 l -0.43584,-14.49515 11.93569,-56.651234 c 6.56464,-31.15818 11.9849,-56.405364 12.04503,-56.104852 0.13107,0.655067 -22.64573,149.216116 -22.91915,149.489546 -0.1046,0.1046 -0.19011,-1.59482 -0.19003,-3.77649 z M 65.31485,53.703646 C 30.945541,25.396726 2.5955404,1.9784992 2.3148484,1.6631402 1.6518984,0.9183142 -5.2257076,-3.4331418 66.104502,42.022806 l 62.299998,39.70134 v 11.75619 c 0,6.4659 -0.135,11.741394 -0.3,11.723304 -0.165,-0.0181 -28.420341,-23.193084 -62.78965,-51.499994 z m 65.08966,39.78814 v -11.74474 l 58.9,-37.53583 c 69.55975,-44.3290818 69.06882,-44.0180228 68.3,-43.2754308 -1.1641,1.124393 -126.78732,104.3007348 -126.99224,104.3007348 -0.11427,0 -0.20776,-5.285134 -0.20776,-11.744734 z M 2.8676574,10.836519 c 0,-0.55 0.09079,-0.775 0.201754,-0.5 0.110965,0.275 0.110965,0.725 0,1 -0.110965,0.275 -0.201754,0.05 -0.201754,-0.5 z m 252.8000126,0 c 0,-0.55 0.0908,-0.775 0.20175,-0.5 0.11097,0.275 0.11097,0.725 0,1 -0.11096,0.275 -0.20175,0.05 -0.20175,-0.5 z"
       id="path14" />
  </g>
</svg>
