<?xml version="1.0" encoding="UTF-8" standalone="no"?>
<svg
   xmlns:dc="http://purl.org/dc/elements/1.1/"
   xmlns:cc="http://creativecommons.org/ns#"
   xmlns:rdf="http://www.w3.org/1999/02/22-rdf-syntax-ns#"
   xmlns:svg="http://www.w3.org/2000/svg"
   xmlns="http://www.w3.org/2000/svg"
   xmlns:sodipodi="http://sodipodi.sourceforge.net/DTD/sodipodi-0.dtd"
   xmlns:inkscape="http://www.inkscape.org/namespaces/inkscape"
   width="200mm"
   height="180mm"
   viewBox="0 0 200 180"
   version="1.1"
   id="svg35"
   inkscape:version="1.0.2-2 (e86c870879, 2021-01-15)"
   sodipodi:docname="ventus-trade-location.svg">
  <defs
     id="defs29" />
  <sodipodi:namedview
     id="base"
     pagecolor="#ffffff"
     bordercolor="#666666"
     borderopacity="1.0"
     inkscape:pageopacity="0.0"
     inkscape:pageshadow="2"
     inkscape:zoom="0.49497475"
     inkscape:cx="695.61274"
     inkscape:cy="364.00943"
     inkscape:document-units="mm"
     inkscape:current-layer="layer1"
     inkscape:document-rotation="0"
     showgrid="false"
     inkscape:window-width="1366"
     inkscape:window-height="728"
     inkscape:window-x="0"
     inkscape:window-y="0"
     inkscape:window-maximized="0" />
  <metadata
     id="metadata32">
    <rdf:RDF>
      <cc:Work
         rdf:about="">
        <dc:format>image/svg+xml</dc:format>
        <dc:type
           rdf:resource="http://purl.org/dc/dcmitype/StillImage" />
        <dc:title></dc:title>
      </cc:Work>
    </rdf:RDF>
  </metadata>
  <g
     inkscape:label="Warstwa 1"
     inkscape:groupmode="layer"
     id="layer1">
    <path
       style="fill:#000000;stroke-width:0.264583"
       d="m 62.167565,36.725624 -3.357695,-1.979549 0.369581,-1.125408 c 0.203268,-0.618974 1.516573,-4.816345 2.918454,-9.327491 1.401882,-4.511146 2.687,-8.339667 2.855823,-8.507825 0.168822,-0.168161 6.021947,-2.710568 13.006947,-5.649798 6.985,-2.9392299 12.912566,-5.4572268 13.172369,-5.5955458 0.381497,-0.203115 1.322456,0.3747559 4.891404,3.0039629 l 4.419032,3.2554569 -2.335932,0.0768 c -1.69172,0.05562 -2.30305,0.165073 -2.21668,0.396875 0.0656,0.176043 0.33645,1.480933 0.60191,2.899761 0.26546,1.418828 0.57648,2.579687 0.69117,2.579687 0.11468,0 0.89652,-0.308176 1.737422,-0.684837 0.84089,-0.376663 1.82655,-0.794697 2.19035,-0.928968 0.63194,-0.23323 0.62598,-0.211518 -0.13329,0.486402 -0.43711,0.401791 -1.10309,0.971137 -1.47996,1.265214 l -0.68521,0.534686 -0.596132,9.784064 c -0.32787,5.381236 -0.63025,9.819772 -0.67196,9.863412 -0.0417,0.04364 -5.910818,-0.164716 -13.042469,-0.463021 -7.13165,-0.298301 -13.723755,-0.537297 -14.649122,-0.531098 l -1.682485,0.01127 -1.011518,1.311648 c -0.556334,0.721405 -1.151646,1.309891 -1.322916,1.307748 -0.17127,-0.0021 -1.82236,-0.894694 -3.669093,-1.983446 z"
       id="path76" />
    <path
       style="fill:#000000;stroke-width:0.264583"
       d="m 104.58871,43.516787 -5.38656,-5.729861 0.15788,-2.778125 c 0.0868,-1.527969 0.236,-5.91384 0.33148,-9.746382 0.11768,-4.723604 0.26785,-6.995959 0.46618,-7.054252 0.37628,-0.110601 70.36019,-0.664734 70.46696,-0.557961 0.0442,0.04417 -6.30313,5.545502 -14.10512,12.225181 l -14.18543,12.144872 -15.51796,3.483256 c -8.53488,1.91579 -15.81562,3.54173 -16.17942,3.61319 -0.57927,0.1138 -1.33076,-0.58202 -6.04801,-5.599918 z"
       id="path74" />
    <path
       style="fill:#000000;stroke-width:0.264583"
       d="m 9.1690103,61.082235 c -2.4157539,-2.92701 -2.8964039,-3.65491 -2.8279639,-4.28271 0.126492,-1.16033 4.5304886,-25.830401 4.6286596,-25.928572 0.04747,-0.04747 1.239311,0.929529 2.648535,2.17111 1.409224,1.241581 2.560188,2.102718 2.557693,1.913641 -0.0062,-0.47186 -0.946701,-4.05748 -1.150906,-4.387889 -0.09088,-0.14704 -1.120952,-0.955469 -2.289059,-1.796513 -1.168106,-0.841045 -2.031817,-1.611257 -1.919353,-1.711587 0.112463,-0.10033 1.692759,-0.491533 3.511769,-0.869339 3.377152,-0.701432 45.206036,-9.709108 47.353243,-10.197325 0.650897,-0.147994 1.202516,-0.246012 1.225818,-0.217813 0.07928,0.09594 -6.127404,19.363883 -6.366066,19.762729 -0.130614,0.218282 -2.412997,3.849688 -5.071962,8.069792 l -4.834482,7.672916 -5.76838,2.2164 c -3.172608,1.21902 -10.828536,4.1794 -17.013171,6.57862 -6.184635,2.39922 -11.363854,4.40062 -11.509375,4.44755 -0.145521,0.0469 -1.574271,-1.50152 -3.1749997,-3.44101 z"
       id="path72" />
    <path
       style="fill:#000000;stroke-width:0.264583"
       d="m 84.178384,70.265055 c -6.621198,-2.54953 -12.088702,-4.67963 -12.150008,-4.73356 -0.06131,-0.0539 -0.925253,-5.1279 -1.919878,-11.27548 C 69.113874,48.108435 68.191476,42.423749 68.058726,41.623384 67.83749,40.28953 67.87338,40.085933 68.4891,39.181949 c 0.369456,-0.542422 0.806516,-1.098081 0.971246,-1.234794 0.284035,-0.235728 28.628062,0.800073 28.830232,1.053568 0.15172,0.190227 7.023702,8.496072 8.647022,10.451262 l 1.55715,1.87547 -1.19513,2.88703 c -0.65732,1.58786 -2.50021,6.10171 -4.09532,10.03077 -1.59511,3.92907 -2.98637,7.26547 -3.0917,7.41424 -0.17726,0.25037 -2.589752,2.28475 -3.498802,2.95043 -0.30912,0.22636 -3.058716,-0.73433 -12.435414,-4.34487 z"
       id="path70" />
    <path
       style="fill:#000000;stroke-width:0.264583"
       d="m 160.87188,61.403795 c -6.7471,-7.60192 -13.18346,-14.84484 -14.30303,-16.09538 l -2.03558,-2.273699 3.2262,-2.75061 c 1.77442,-1.512838 5.24316,-4.479529 7.70832,-6.592647 14.22266,-12.191569 18.25562,-15.615573 18.3885,-15.611943 0.0815,0.0021 2.97549,9.973712 6.43114,22.158854 l 6.283,22.154805 -6.54359,6.41615 c -3.59897,3.52888 -6.62097,6.41614 -6.71555,6.41614 -0.0946,0 -5.69232,-6.21975 -12.43941,-13.82167 z"
       id="path68" />
    <path
       style="fill:#000000;stroke-width:0.264583"
       d="m 17.63401,100.66961 -2.508787,-3.086855 -2.65e-4,-2.24895 c -2.06e-4,-1.23693 0.122008,-5.97565 0.271584,-10.5305 l 0.271958,-8.28153 -0.603427,-0.84659 c -0.525532,-0.7373 -0.643959,-1.39245 -0.91739,-5.07507 -0.172681,-2.32567 -0.291936,-4.24266 -0.265012,-4.25999 0.02692,-0.0173 4.513794,-1.76933 9.970825,-3.89334 5.457031,-2.12401 11.261328,-4.39173 12.898438,-5.03939 1.637109,-0.64766 2.976562,-1.06213 2.976562,-0.92105 0,0.32837 -2.054738,18.29514 -2.235891,19.55077 -0.128449,0.89034 0.126516,1.28721 4.489437,6.98825 2.544091,3.32437 4.625621,6.13344 4.625621,6.24237 0,0.10894 -1.101329,0.78735 -2.447396,1.50759 -1.346068,0.72023 -5.48349,2.95315 -9.194271,4.96204 -3.710781,2.00888 -8.564023,4.634995 -10.78498,5.835795 l -4.038105,2.1833 z"
       id="path66" />
    <path
       style="fill:#000000;stroke-width:0.264583"
       d="m 74.272193,106.53207 c -0.23658,-0.84753 -0.518599,-1.75908 -0.626705,-2.02565 -0.108109,-0.26658 -5.690449,-3.83845 -12.405203,-7.937505 l -12.208642,-7.45282 -4.768183,-6.24864 -4.768184,-6.24864 1.170448,-10.42011 c 0.643747,-5.73106 1.172448,-10.56154 1.174888,-10.7344 0.0024,-0.17285 1.284988,-0.81003 2.850102,-1.41595 l 2.845665,-1.10167 5.09919,-8.15185 5.099193,-8.151838 3.762957,1.940108 c 2.385711,1.230026 3.883988,2.165649 4.093644,2.556338 0.18188,0.338928 1.225131,6.441832 2.318339,13.562002 1.093208,7.12017 2.015961,12.96801 2.050563,12.9952 0.0346,0.0272 3.575254,1.38311 7.868119,3.01317 15.001837,5.6964 16.933333,6.45743 16.933333,6.67191 0,0.11882 -1.73827,2.86719 -3.862822,6.10749 -4.470196,6.81781 -7.490629,11.43107 -12.388463,18.921515 -1.926601,2.94642 -3.571576,5.4258 -3.655502,5.50972 -0.08393,0.0839 -0.346157,-0.54084 -0.582737,-1.38838 z"
       id="path64" />
    <path
       style="fill:#000000;stroke-width:0.264583"
       d="m 141.59297,112.30545 c -2.40109,-0.83671 -7.16359,-2.45839 -10.58333,-3.60373 -3.41974,-1.14535 -6.31163,-2.1617 -6.42641,-2.25857 -0.11479,-0.0969 0.19069,-3.90361 0.67884,-8.459435 l 0.88755,-8.28329 -11.26218,-7.44418 c -6.1942,-4.0943 -11.70671,-7.71686 -12.25002,-8.05013 -0.967,-0.59315 -0.98056,-0.62368 -0.64268,-1.44694 0.18985,-0.46255 2.17183,-5.36537 4.40442,-10.89517 2.23259,-5.52979 4.13245,-10.14082 4.22192,-10.24673 0.0895,-0.10592 6.58872,-1.68192 14.4428,-3.50224 7.85407,-1.82032 14.99451,-3.48826 15.86763,-3.70654 l 1.5875,-0.396881 0.77422,0.856401 c 0.42582,0.47103 4.83113,5.37031 9.78959,10.8873 4.95845,5.51698 11.11678,12.36308 13.68517,15.21354 l 4.66981,5.18265 -10.75523,5.38705 c -5.91537,2.96287 -10.77261,5.40365 -10.79386,5.42396 -0.0212,0.0203 -0.64793,5.63285 -1.39263,12.47233 -1.64741,15.130165 -1.5445,14.423395 -2.09772,14.405845 -0.24187,-0.008 -2.40429,-0.69853 -4.80539,-1.53524 z"
       id="path62" />
    <path
       style="fill:#000000;stroke-width:0.264583"
       d="m 98.333598,117.05472 -9.260423,-3.88599 -6.35,-1.2857 c -3.4925,-0.70713 -6.448075,-1.3712 -6.567948,-1.47572 -0.195595,-0.17054 1.32724,-2.60157 8.862193,-14.147465 1.234585,-1.89177 2.822535,-4.33256 3.528774,-5.42396 6.864754,-10.60862 8.281384,-12.6012 10.099374,-14.20536 l 1.855952,-1.63765 0.90041,0.62316 c 1.42665,0.98734 21.66477,14.39676 22.07341,14.62545 0.30953,0.17322 0.22451,1.48684 -0.53453,8.25876 l -0.90262,8.052775 -7.22209,7.19385 -7.22209,7.19384 z"
       id="path60" />
    <path
       style="fill:#000000;stroke-width:0.264583"
       d="m 175.9277,137.83369 -7.86632,-0.82801 -5.49514,-5.29995 c -3.02233,-2.91497 -6.49062,-6.24872 -7.70732,-7.40833 -2.03847,-1.94282 -2.35458,-2.39232 -4.02549,-5.7241 l -1.81331,-3.61571 1.02731,-8.952 c 0.56503,-4.92361 1.23916,-10.838715 1.49809,-13.144685 l 0.47077,-4.19269 10.55673,-5.27966 c 5.8062,-2.90381 10.65352,-5.24381 10.77182,-5.20001 0.1183,0.0438 4.73875,9.12838 10.26765,20.18796 l 10.05256,20.108345 -1.18096,1.21571 -1.18097,1.21571 0.94912,1.61942 0.94912,1.61943 -0.0735,3.75828 -0.0735,3.75828 -3.1477,0.867 c -1.73124,0.47684 -3.23405,0.96261 -3.33958,1.07949 -0.10553,0.11688 -0.58059,1.31384 -1.05569,2.65991 -0.62505,1.77092 -0.98179,2.43858 -1.29063,2.4155 -0.23475,-0.0175 -3.96666,-0.40449 -8.29313,-0.85989 z"
       id="path58" />
    <path
       style="fill:#000000;stroke-width:0.264583"
       d="m 118.66982,137.19771 -5.06378,-3.89358 -0.71988,-3.17631 c -0.39593,-1.74697 -1.06526,-4.60506 -1.48739,-6.35131 l -0.7675,-3.175 6.2714,-6.08541 c 3.44927,-3.34698 6.39729,-6.06984 6.55116,-6.0508 0.31901,0.0395 21.86882,7.05382 22.94358,7.46801 0.5314,0.20479 1.12426,1.06292 2.42442,3.50917 l 1.72101,3.2381 -1.30326,1.6063 c -0.7168,0.88347 -3.63484,4.58286 -6.48454,8.22088 -2.84971,3.63802 -5.21764,6.65238 -5.26208,6.69856 -0.0549,0.057 -13.75936,1.93719 -13.75936,1.8877 0,-0.002 -2.2787,-1.75485 -5.06378,-3.89631 z"
       id="path56" />
    <path
       style="fill:#000080;stroke-width:0.264583"
       d="m 46.362592,139.40476 c -2.048084,-2.82785 -3.72379,-5.23227 -3.72379,-5.34317 0,-0.11089 0.90507,-1.37682 2.011269,-2.81316 1.106199,-1.43634 1.969403,-2.64036 1.91823,-2.67558 -0.05117,-0.0352 -0.576861,-0.43664 -1.168197,-0.89201 -0.838631,-0.64581 -2.076606,-1.09802 -5.627386,-2.05556 l -4.552227,-1.2276 -5.485117,-3.18185 c -3.016813,-1.75003 -6.437614,-3.73425 -7.601781,-4.40941 -1.164166,-0.67515 -2.176197,-1.22855 -2.248958,-1.22977 -0.07276,-0.001 -0.191823,0.52396 -0.264583,1.16708 -0.127879,1.13027 -0.176443,1.18477 -1.455209,1.63314 -0.727604,0.25511 -1.453353,0.47307 -1.612772,0.48435 -0.474031,0.0335 3.014083,-12.46501 3.626175,-12.99326 0.284271,-0.24533 2.745515,-1.601 5.469435,-3.0126 2.723917,-1.41161 7.274298,-3.790805 10.111954,-5.287115 2.837656,-1.4963 6.87424,-3.61098 8.970184,-4.69928 l 3.810813,-1.97873 3.084959,1.89105 c 1.696728,1.04008 6.957907,4.26403 11.691506,7.16433 l 8.606549,5.273275 0.812654,2.46713 0.812655,2.46712 -5.178552,7.20856 c -2.848202,3.96471 -6.894414,9.58981 -8.991584,12.50023 l -3.813032,5.29167 0.161256,1.5875 c 0.08869,0.87312 0.220483,2.12328 0.292867,2.77812 l 0.131609,1.19063 -2.854259,1.91823 c -1.569844,1.05502 -2.934499,1.91822 -3.032569,1.91822 -0.09807,0 -1.854012,-2.31369 -3.902099,-5.14154 z"
       id="path54" />
    <path
       style="fill:#1409a0;stroke-width:0.264583;fill-opacity:1"
       d="m 70.221613,146.25389 c -0.909505,-1.06233 -1.652834,-2.02996 -1.651839,-2.15028 0.0011,-0.12032 0.424069,-0.50636 0.940165,-0.85786 1.188143,-0.80922 1.360811,-1.14606 1.577856,-3.07803 l 0.17689,-1.57454 -6.706171,-1.55153 c -3.688394,-0.85334 -6.805496,-1.64323 -6.926892,-1.7553 -0.121396,-0.11208 1.545479,-2.58896 3.704167,-5.50418 2.158688,-2.91522 5.829886,-7.88683 8.15822,-11.04802 2.328333,-3.1612 4.411927,-5.96498 4.630208,-6.23062 0.381249,-0.46397 0.658879,-0.42865 7.051797,0.89708 l 6.654924,1.38007 -6.80402,15.55759 c -6.243727,14.27648 -6.900677,15.65185 -7.977838,16.70238 l -1.173821,1.14477 z"
       id="path52" />
    <path
       style="fill:#000000;stroke-width:0.264583"
       d="m 92.90413,163.5633 c -2.768923,-5.23433 -2.641965,-5.06323 -4.160266,-5.60726 -1.526879,-0.54711 -1.527254,-0.54793 -1.795002,-3.91491 -0.09968,-1.25352 -0.257802,-2.39398 -0.35138,-2.53434 -0.09358,-0.14039 -2.38906,-1.43449 -5.101071,-2.87581 -4.430665,-2.35468 -4.909183,-2.6747 -4.716537,-3.15418 0.117917,-0.29349 1.095772,-2.61721 2.17301,-5.16383 1.077235,-2.54661 3.905607,-9.24388 6.285264,-14.88281 2.37966,-5.63893 4.468159,-10.25261 4.641109,-10.25261 0.316151,0 17.384073,6.87736 18.347373,7.3929 0.40158,0.21492 0.75617,1.28402 1.60596,4.84198 1.69711,7.10563 2.31745,5.51315 -5.39322,13.84493 -3.62683,3.91897 -7.112632,7.66855 -7.746222,8.33237 l -1.15198,1.20697 3.843612,4.74372 c 2.11398,2.60905 3.83627,4.80435 3.82731,4.87846 -0.0229,0.18918 -7.729232,6.68838 -8.059002,6.79662 -0.14855,0.0488 -1.160581,-1.59472 -2.248958,-3.6522 z"
       id="path50" />
    <path
       style="fill:#000000;stroke-width:0.264583"
       d="m 108.40618,166.59823 -2.36282,-6.25676 -3.55949,-4.39185 c -1.95772,-2.41551 -3.7181,-4.57531 -3.911962,-4.79954 -0.30578,-0.3537 0.636192,-1.39377 7.112952,-7.85373 l 7.4654,-7.44605 4.49792,3.18095 c 2.47385,1.74953 4.76567,3.36254 5.09293,3.58449 0.54049,0.36655 1.21268,0.32345 7.33625,-0.47049 3.70768,-0.48071 6.8026,-0.81265 6.87761,-0.73764 0.16707,0.16707 0.67959,2.7386 2.91939,14.64808 0.95788,5.09323 1.80889,9.48423 1.89113,9.75778 0.13497,0.44895 0.0373,0.48194 -1.00368,0.33893 -0.63427,-0.0871 -2.01642,-0.23704 -3.07144,-0.33311 l -1.91823,-0.1747 v 1.19766 1.19764 l -1.7488,0.30456 -1.7488,0.30454 -1.18357,-0.92213 c -0.65096,-0.50715 -1.32252,-0.87781 -1.49234,-0.8237 -0.16983,0.0541 -1.93233,0.47344 -3.91667,0.93186 l -3.60789,0.83344 -2.40244,2.09412 -2.40245,2.09415 h -3.25008 -3.25009 l -2.36283,-6.25676 z"
       id="path48" />
    <path
       style="fill:#000000;stroke-width:0.264583"
       d="m 161.43672,171.13065 -10.18646,-4.35798 h -3.58468 -3.58468 l -1.14321,-5.6224 c -1.56681,-7.70575 -3.94995,-19.2549 -4.11907,-19.96184 -0.11058,-0.46223 1.19358,-2.21027 6.37501,-8.54478 3.58271,-4.38002 6.61071,-7.92852 6.72889,-7.88556 0.28858,0.1049 1.95433,1.6674 8.91085,8.35849 l 5.87893,5.65463 8.52384,0.89818 c 4.68811,0.49399 8.60185,0.93049 8.69722,0.96999 0.0954,0.0395 -1.32573,3.23025 -3.15798,7.09056 -8.08805,17.04062 -10.87199,23.0042 -10.87199,23.2894 0,0.14478 0.47758,1.21308 1.06128,2.37402 0.58371,1.16091 0.97067,2.10765 0.8599,2.10381 -0.11077,-0.004 -4.7853,-1.96805 -10.38785,-4.36494 z"
       id="path16" />
    <path
       style="fill:#1409a0;stroke-width:2.85714;fill-opacity:1"
       d="m 177.11544,526.61721 c -6.67857,-9.39212 -12.14286,-18.40998 -12.14286,-20.03969 0,-1.62971 2.77348,-6.71443 6.16328,-11.29938 8.13509,-11.0033 4.71179,-14.97762 -18.35485,-21.30924 -9.79464,-2.68856 -30.95178,-12.49469 -47.01589,-21.79141 -16.064103,-9.29671 -29.735578,-16.90312 -30.381053,-16.90312 -0.645475,0 -1.846034,2.57143 -2.66791,5.71429 -0.821875,3.14285 -3.002558,5.71428 -4.845962,5.71428 -3.785255,0 -2.272292,-9.21844 5.256258,-32.02626 l 4.703273,-14.24861 52.985904,-27.44599 52.98592,-27.446 43.26961,26.60308 c 59.44566,36.54846 58.52597,30.98381 15.07007,91.18235 -31.58767,43.75774 -34.08103,48.14762 -32.67022,57.52018 1.38554,9.20468 0.588,10.74395 -8.58831,16.57554 -5.56363,3.53571 -10.45515,6.39437 -10.87005,6.35256 -0.41489,-0.0418 -6.21864,-7.76046 -12.89721,-17.15258 z"
       id="path78"
       transform="scale(0.26458333)" />
    <path
       style="fill:#000000;stroke-width:0.0163694"
       d="m 51.48067,124.3854 c -0.336443,-0.56354 -0.482343,-0.81048 -3.526973,-5.96957 -0.87742,-1.48678 -0.996196,-1.70314 -1.285212,-2.34114 -0.472815,-1.04374 -0.622083,-1.6717 -0.567186,-2.38616 0.09628,-1.25298 0.627238,-2.39772 1.534755,-3.30893 1.141034,-1.14567 2.801362,-1.77568 4.385123,-1.66394 0.322258,0.0227 0.689396,0.0692 0.919469,0.11632 1.640091,0.336 3.046494,1.38225 3.809999,2.83432 0.475224,0.9038 0.681304,1.93335 0.556438,2.77989 -0.08113,0.55002 -0.253365,1.03221 -0.669528,1.87436 -0.267717,0.54175 -0.367911,0.7239 -0.810425,1.47325 -0.191401,0.32411 -0.749618,1.27435 -1.240484,2.11165 -2.284103,3.89611 -2.815025,4.78592 -2.879261,4.82563 -0.0082,0.005 -0.110196,-0.1505 -0.226715,-0.34568 z m 0.65317,-7.93394 c 0.640385,-0.0964 1.218341,-0.37987 1.684573,-0.82612 0.510951,-0.48905 0.796082,-1.02328 0.90396,-1.69366 0.03363,-0.20896 0.03353,-0.60608 -2.47e-4,-0.8334 -0.162727,-1.09591 -0.978074,-2.04382 -2.070723,-2.40741 -0.226996,-0.0755 -0.387598,-0.10187 -0.761594,-0.12487 -0.410059,-0.0252 -0.724572,-0.005 -0.993659,0.0649 -0.812768,0.21017 -1.488751,0.71104 -1.91274,1.41725 -0.184192,0.30679 -0.34119,0.74472 -0.377567,1.05316 -0.02419,0.20515 -0.0093,0.78668 0.02481,0.97109 0.196452,1.06073 1.118933,2.02431 2.206403,2.30471 0.179858,0.0464 0.44341,0.0917 0.611179,0.10519 0.141987,0.0114 0.517429,-0.006 0.685591,-0.0308 z"
       id="path14" />
    <path
       style="fill:#000000;stroke-width:0.0113511"
       d="m 64.404211,117.49886 c -0.233302,-0.39078 -0.334474,-0.56201 -2.445729,-4.13951 -0.608435,-1.03099 -0.690798,-1.18102 -0.891212,-1.62343 -0.327867,-0.72377 -0.431375,-1.15922 -0.393308,-1.65465 0.06676,-0.86886 0.43495,-1.66266 1.064255,-2.29453 0.791233,-0.79445 1.942564,-1.23132 3.040801,-1.15384 0.223465,0.0157 0.478052,0.048 0.637593,0.0807 1.137298,0.23299 2.112548,0.9585 2.641989,1.96541 0.329538,0.62673 0.472441,1.34066 0.385855,1.92768 -0.05626,0.3814 -0.175693,0.71577 -0.464275,1.29975 -0.185645,0.37567 -0.255123,0.50198 -0.561978,1.0216 -0.132724,0.22475 -0.519812,0.88368 -0.860196,1.4643 -1.583879,2.7017 -1.952039,3.31872 -1.996583,3.34626 -0.0057,0.003 -0.07641,-0.10436 -0.157212,-0.23971 z m 0.452932,-5.50167 c 0.444065,-0.0669 0.844841,-0.26342 1.168143,-0.57287 0.354311,-0.33912 0.552032,-0.70957 0.626838,-1.17444 0.02332,-0.1449 0.02325,-0.42028 -1.71e-4,-0.57791 -0.112841,-0.75994 -0.678232,-1.41726 -1.435914,-1.66938 -0.157407,-0.0524 -0.268774,-0.0706 -0.528116,-0.0866 -0.28435,-0.0175 -0.502445,-0.003 -0.689039,0.045 -0.563603,0.14574 -1.032353,0.49306 -1.326363,0.98277 -0.127725,0.21274 -0.236593,0.51642 -0.261818,0.7303 -0.01677,0.14226 -0.0064,0.54551 0.0172,0.67339 0.136227,0.73555 0.775908,1.40373 1.529999,1.59817 0.12472,0.0322 0.307476,0.0636 0.423813,0.0729 0.09846,0.008 0.358804,-0.004 0.475414,-0.0214 z"
       id="path923" />
  </g>
</svg>
