<svg xmlns="http://www.w3.org/2000/svg" id="icon-ventus-trade-logo" viewBox="0 0 31 32">
<path d="M14.746 31.385c-0.372-0.285-2.967-2.253-5.768-4.373s-5.114-3.877-5.14-3.905c-0.027-0.027 0.006-0.017 0.072 0.023s2.7 1.546 5.852 3.346l5.732 3.273v1.079c0 0.594-0.016 1.078-0.036 1.077s-0.34-0.235-0.712-0.52zM15.735 30.829v-1.079l5.732-3.273c3.152-1.8 5.786-3.306 5.852-3.346s0.099-0.050 0.072-0.022c-0.079 0.083-11.598 8.8-11.628 8.8-0.015 0-0.028-0.486-0.028-1.079zM11.97 19.371c-4.299-6.905-4.156-6.673-4.13-6.673 0.012 0 1.739 2.085 3.838 4.634l3.817 4.634-0.026 3.024zM15.735 23.497l-0-1.533 3.816-4.633c2.099-2.548 3.826-4.633 3.837-4.633 0.026 0 0.218-0.311-4.033 6.516-1.893 3.040-3.482 5.592-3.531 5.671-0.088 0.143-0.089 0.122-0.089-1.388zM11.433 16.671c-2.213-2.673-4.055-4.905-4.094-4.959s0.093 0.053 0.291 0.238c0.198 0.186 2.048 1.91 4.112 3.831l3.752 3.493v1.128c0 0.62-0.008 1.128-0.018 1.128s-1.829-2.187-4.042-4.86zM15.735 20.414v-1.138l3.752-3.494c2.064-1.922 3.915-3.646 4.114-3.832s0.338-0.305 0.309-0.265c-0.102 0.138-7.993 9.678-8.084 9.772-0.089 0.093-0.091 0.074-0.091-1.043zM3.146 19.542c-0.045-0.181-2.759-17.986-2.749-18.034 0.007-0.036 0.661 3.009 1.452 6.767l1.439 6.832-0.054 2.042c-0.051 1.952-0.071 2.469-0.089 2.394zM28.043 19.089c0-0.263-0.024-1.266-0.053-2.228l-0.053-1.749 1.44-6.836c0.792-3.76 1.446-6.806 1.453-6.77 0.016 0.079-2.733 18.005-2.765 18.038-0.013 0.013-0.023-0.192-0.023-0.456zM7.881 6.48c-4.147-3.416-7.568-6.241-7.602-6.279-0.080-0.090-0.91-0.615 7.697 4.87l7.517 4.79v1.419c0 0.78-0.016 1.417-0.036 1.415s-3.429-2.799-7.576-6.214zM15.735 11.281v-1.417l7.107-4.529c8.393-5.349 8.334-5.311 8.241-5.222-0.14 0.136-15.299 12.585-15.323 12.585-0.014 0-0.025-0.638-0.025-1.417zM0.346 1.308c0-0.066 0.011-0.093 0.024-0.060s0.013 0.087 0 0.121c-0.013 0.033-0.024 0.006-0.024-0.060zM30.85 1.308c0-0.066 0.011-0.093 0.024-0.060s0.013 0.087 0 0.121c-0.013 0.033-0.024 0.006-0.024-0.060z"></path>
</svg>