<?xml version="1.0" encoding="UTF-8"?> <svg xmlns="http://www.w3.org/2000/svg" fill="currentColor" width="1em" height="1em" viewBox="0 0 187.5 150"><path id="Icon_awesome-shipping-fast" data-name="Icon awesome-shipping-fast" d="M182.813,103.125h-4.687V71.455a14.063,14.063,0,0,0-4.131-9.932L144.727,32.256a14.063,14.063,0,0,0-9.932-4.131h-12.92V14.062A14.066,14.066,0,0,0,107.812,0h-75A14.066,14.066,0,0,0,18.75,14.062V28.125H2.344A2.351,2.351,0,0,0,0,30.469v4.688A2.351,2.351,0,0,0,2.344,37.5H82.031a2.351,2.351,0,0,1,2.344,2.344v4.688a2.351,2.351,0,0,1-2.344,2.344H11.719a2.351,2.351,0,0,0-2.344,2.344v4.687a2.351,2.351,0,0,0,2.344,2.344H72.656A2.351,2.351,0,0,1,75,58.594v4.688a2.351,2.351,0,0,1-2.344,2.344H2.344A2.351,2.351,0,0,0,0,67.969v4.688A2.351,2.351,0,0,0,2.344,75H63.281a2.351,2.351,0,0,1,2.344,2.344v4.688a2.351,2.351,0,0,1-2.344,2.344H18.75v37.5a28.125,28.125,0,1,0,56.25,0h37.5a28.125,28.125,0,1,0,56.25,0h14.063a4.7,4.7,0,0,0,4.688-4.687v-9.375A4.7,4.7,0,0,0,182.813,103.125ZM46.875,135.938a14.063,14.063,0,1,1,14.062-14.063A14.066,14.066,0,0,1,46.875,135.938Zm93.75,0a14.063,14.063,0,1,1,14.063-14.063A14.066,14.066,0,0,1,140.625,135.938ZM164.063,75H121.875V42.188h12.92l29.268,29.268Z"></path></svg> 