<?xml version="1.0" encoding="UTF-8"?> <svg xmlns="http://www.w3.org/2000/svg" width="29.25" height="31.5" viewBox="0 0 29.25 31.5"><path id="Icon_ionic-ios-mail-open" data-name="Icon ionic-ios-mail-open" d="M31.887,14.752C31.605,14.47,20.756,3.4,20.756,3.4a3.862,3.862,0,0,0-5.513.007s-10.8,11-11.13,11.348a2.825,2.825,0,0,0-.738,1.835V31.5a2.257,2.257,0,0,0,2.25,2.25h24.75a2.257,2.257,0,0,0,2.25-2.25V16.523A2.706,2.706,0,0,0,31.887,14.752Zm-1.364,2.974-5.7,5.963a.136.136,0,0,0,0,.2l5.295,5.639a.912.912,0,0,1,0,1.294.917.917,0,0,1-1.294,0L18.2,19.484a.277.277,0,0,0-.408,0L7.186,30.811a.917.917,0,0,1-1.294,0,.912.912,0,0,1,0-1.294l5.295-5.639a.15.15,0,0,0,0-.2L5.463,17.719A1.6,1.6,0,0,1,6.6,15.2H29.4A1.66,1.66,0,0,1,30.523,17.726Z" transform="translate(-3.375 -2.25)" fill="currentColor"></path></svg> 