<?xml version="1.0" encoding="UTF-8"?> <svg xmlns="http://www.w3.org/2000/svg" fill="currentColor" width="1em" height="1em" viewBox="0 0 187.5 150"><path id="Icon_awesome-user-check" data-name="Icon awesome-user-check" d="M65.625,75a37.5,37.5,0,1,0-37.5-37.5A37.5,37.5,0,0,0,65.625,75Zm26.25,9.375H86.982a51,51,0,0,1-42.715,0H39.375A39.385,39.385,0,0,0,0,123.75v12.188A14.066,14.066,0,0,0,14.062,150H117.187a14.066,14.066,0,0,0,14.062-14.062V123.75A39.385,39.385,0,0,0,91.875,84.375ZM186.5,46.758l-8.145-8.232a3.475,3.475,0,0,0-4.922-.029l-30.7,30.469L129.4,55.547a3.475,3.475,0,0,0-4.922-.029l-8.232,8.174a3.475,3.475,0,0,0-.029,4.922l23.936,24.111a3.475,3.475,0,0,0,4.922.029l41.4-41.074A3.5,3.5,0,0,0,186.5,46.758Z"></path></svg> 