<?xml version="1.0" encoding="UTF-8"?> <svg xmlns="http://www.w3.org/2000/svg" fill="currentColor" width="1em" height="1em" viewBox="0 0 126.563 150"><path id="Icon_metro-spoon-fork" data-name="Icon metro-spoon-fork" d="M31.66,1.928c-15.533,0-28.125,14.691-28.125,32.813,0,15.516,9.232,28.516,21.637,31.933l-4.656,75.9a8.731,8.731,0,0,0,8.8,9.357H34a8.731,8.731,0,0,0,8.8-9.357l-4.656-75.9c12.4-3.418,21.637-16.417,21.637-31.933C59.785,16.619,47.193,1.928,31.66,1.928Zm94.531,0L118.378,48.8h-5.859L108.613,1.928h-3.906L100.8,48.8H94.941L87.128,1.928H83.222V62.866a4.688,4.688,0,0,0,4.688,4.688h12.208l-4.6,75.018a8.731,8.731,0,0,0,8.8,9.357H109a8.731,8.731,0,0,0,8.8-9.357l-4.6-75.018H125.41a4.688,4.688,0,0,0,4.688-4.687V1.928Z" transform="translate(-3.535 -1.928)"></path></svg> 