<?xml version="1.0" encoding="UTF-8"?> <svg xmlns="http://www.w3.org/2000/svg" width="45.001" height="36.001" viewBox="0 0 45.001 36.001"><path id="Icon_awesome-car-crash" data-name="Icon awesome-car-crash" d="M10.072,15.526,9.2,18.786A6.63,6.63,0,0,0,9.03,21.2L6.555,23.242a.636.636,0,0,1-1.028-.617l1.086-5.392a.636.636,0,0,0-.562-.759L.575,15.944a.636.636,0,0,1-.291-1.163l4.581-3.045A.637.637,0,0,0,5,10.8l-3.5-4.248a.636.636,0,0,1,.617-1.028L7.518,6.612a.637.637,0,0,0,.759-.562L8.808.575A.637.637,0,0,1,9.972.284l3.045,4.58A.637.637,0,0,0,13.951,5l4.247-3.5a.636.636,0,0,1,1.028.617l-.8,3.949c-.191.214-.382.428-.556.661L15.612,9.756l-.753,1.007A6.782,6.782,0,0,0,10.072,15.526Zm34.774,9.317-.873,3.26a4.406,4.406,0,0,1-1.234,2.064,4.7,4.7,0,0,1-.616.492l-.984,3.672a2.248,2.248,0,0,1-2.756,1.591l-2.173-.582a2.25,2.25,0,0,1-1.591-2.756l.582-2.173L17.815,25.753l-.582,2.173a2.25,2.25,0,0,1-2.756,1.591L12.3,28.935a2.249,2.249,0,0,1-1.591-2.756l.984-3.672a4.684,4.684,0,0,1-.288-.735,4.405,4.405,0,0,1-.037-2.4l.873-3.26a4.467,4.467,0,0,1,2.594-2.968,4.524,4.524,0,0,1,1.3-.332l1.275-1.7,2.261-3.021a7.92,7.92,0,0,1,2.668-2.275A7.72,7.72,0,0,1,23.4,5.351a7.806,7.806,0,0,1,2.267-.425,7.939,7.939,0,0,1,2.351.267l8.626,2.311a7.925,7.925,0,0,1,2.169.944,7.834,7.834,0,0,1,3.612,5.73l.447,3.747.252,2.113a4.534,4.534,0,0,1,1.6,2.1,4.44,4.44,0,0,1,.123,2.7ZM17.97,16.477a2.123,2.123,0,0,0-2.754,1.584,2.122,2.122,0,0,0,1.593,2.749c1.3.349,3.2,1.091,3.55-.21S19.274,16.826,17.97,16.477ZM38.4,18.458l-.447-3.747a3.374,3.374,0,0,0-2.478-2.86L26.853,9.539a3.376,3.376,0,0,0-3.576,1.238L21.016,13.8l12.094,3.24L38.4,18.458ZM39.7,22.3c-1.3-.349-3.783,1.076-4.131,2.376s1.666,1.607,2.97,1.957A2.243,2.243,0,1,0,39.7,22.3Z" transform="translate(0 0.001)" fill="currentColor"></path></svg> 