<svg xmlns="http://www.w3.org/2000/svg" id="icon-engine" viewBox="0 0 32 32" fill="currentColor" height="1em" width="1em" > 
<path d="M26.909 26.245c-0.13-0.328-0.488-1.217-0.794-1.976l-0.557-1.38-0.916 0.018-0.061 0.212c-0.033 0.117-0.2 0.712-0.371 1.322s-0.386 1.37-0.477 1.688l-0.167 0.578-5.767-0.016c-3.172-0.009-6.269-0.024-6.883-0.035l-1.116-0.019-2.896-3.975-3.771-0.001v-5.456l-0.514 0.019c-0.283 0.010-0.604 0.027-0.713 0.036l-0.199 0.017-0.022 1.002c-0.012 0.551-0.022 1.388-0.022 1.859l-0 0.857h-1.665v-9.11h1.665v3.755h1.469v-5.42h1.649c0.907 0 1.649-0.011 1.65-0.024s0.015-0.493 0.032-1.066c0.017-0.573 0.038-1.049 0.047-1.057s0.755-0.022 1.658-0.029c0.903-0.007 1.778-0.021 1.944-0.031l0.302-0.019v-1.169h-3.037v-1.665h12.963v1.665h-3.037v1.175l3.869 0.017 0.017 2.007 2.366 0.017 0.542 1.903c0.298 1.046 0.548 1.908 0.555 1.914s0.212 0.021 0.455 0.033l0.442 0.022 0.351-0.889c0.193-0.489 0.559-1.401 0.814-2.026l0.463-1.137 0.867 0c0.477 0 1.561 0.010 2.41 0.022l1.543 0.022v16.936h-4.854l-0.237-0.596zM30.382 21.249c-0.024-6.274-0.044-9.665-0.058-9.678-0.016-0.016-1.99-0.078-2.005-0.064-0.006 0.006-0.376 0.92-0.824 2.031l-0.813 2.021-1.635 0.008c-0.899 0.005-1.635 0-1.635-0.010 0-0.016-0.89-3.203-1.033-3.696l-0.049-0.171h-2.706l-0.002-0.188c-0.005-0.438-0.055-1.773-0.067-1.784-0.007-0.006-2.588-0.022-5.736-0.034l-5.722-0.023v2.224h-3.298v9.11h2.925l2.918 4.006 3.993 0.022c2.196 0.012 4.826 0.022 5.843 0.022h1.851l0.033-0.106c0.018-0.058 0.264-0.925 0.547-1.927l0.515-1.821 3.26 0.017 0.097 0.245c0.108 0.273 1.416 3.515 1.485 3.682l0.044 0.106h2.087z"></path>
</svg>