<svg xmlns="http://www.w3.org/2000/svg" id="icon-petrol" viewBox="0 0 32 32" fill="currentColor" height="1em" width="1em">
<path d="M3.6 31.856c-0.195-0.212-0.268-0.375-0.267-0.598 0.001-0.218 0.077-0.408 0.216-0.538 0.184-0.172 0.296-0.195 1.131-0.233l0.776-0.035v-29.948l0.508-0.505h17.946l0.474 0.404 0.022 5.142c0.012 2.828 0.022 6.18 0.022 7.449v2.307l0.235 0.112c0.378 0.181 0.71 0.413 0.974 0.68 0.296 0.3 0.467 0.554 0.702 1.041l0.177 0.368 0.018 3.55c0.010 1.953 0.026 3.629 0.036 3.725l0.018 0.175 0.246-0.012c0.374-0.019 0.354 0.042 0.38-1.159 0.051-2.374-0.008-14.164-0.074-14.68-0.038-0.298-0.094-0.427-0.269-0.627-0.186-0.211-0.513-0.364-0.949-0.442-0.406-0.073-0.493-0.112-0.654-0.29-0.298-0.33-0.298-0.577 0.002-0.947 0.152-0.187 0.27-0.233 0.605-0.233 0.959 0 2.050 0.726 2.529 1.682 0.165 0.329 0.203 0.514 0.239 1.159 0.050 0.904 0.021 15.397-0.032 15.655-0.117 0.58-0.711 1.173-1.343 1.341-0.259 0.069-0.636 0.062-0.891-0.017-0.627-0.194-1.212-0.915-1.297-1.6-0.020-0.163-0.047-1.67-0.064-3.657-0.019-2.186-0.041-3.437-0.064-3.543-0.053-0.245-0.341-0.635-0.415-0.562-0.013 0.013-0.037 0.101-0.054 0.195-0.017 0.097-0.037 2.982-0.046 6.704l-0.016 6.533 0.794 0.034c0.572 0.024 0.827 0.048 0.91 0.083 0.216 0.092 0.422 0.415 0.422 0.662 0 0.181-0.089 0.36-0.291 0.58l-0.172 0.188h-22.352zM22.892 16v-14.465h-15.902v28.931h15.902zM8.94 16.51c-0.18-0.206-0.253-0.36-0.252-0.534 0-0.215 0.062-0.36 0.234-0.548l0.166-0.182 5.718 0.011c4.604 0.008 5.744 0.019 5.849 0.053 0.172 0.056 0.261 0.143 0.364 0.354 0.098 0.201 0.092 0.358-0.023 0.627-0.122 0.284-0.17 0.309-0.645 0.335-0.228 0.013-2.853 0.032-5.834 0.042l-5.42 0.019zM9.471 13.432c-0.395-0.032-0.415-0.040-0.604-0.231l-0.18-0.183v-9.282l0.41-0.406 4.897 0.001c5.068 0.001 6.603 0.024 6.762 0.102 0.135 0.066 0.204 0.183 0.266 0.452 0.053 0.226 0.057 0.565 0.056 4.49-0 3.828-0.006 4.272-0.055 4.517-0.064 0.32-0.12 0.417-0.282 0.489-0.11 0.049-0.597 0.054-5.622 0.058-3.026 0.003-5.568-0.001-5.649-0.007zM19.586 8.384l0.008-3.616h-9.372v7.249l9.355-0.017z"></path>
</svg>