<svg xmlns="http://www.w3.org/2000/svg" id="icon-road" viewBox="0 0 32 32" fill="currentColor" height="1em" width="1em">
<path d="M0.243 26.588c0.599-1.771 2.166-6.382 4.016-11.812 1.107-3.251 2.332-6.847 2.721-7.992l0.708-2.081 0.889-0c0.697-0 0.886 0.009 0.874 0.041-0.008 0.022-0.719 2.899-1.581 6.392s-2.094 8.489-2.74 11.102c-0.645 2.613-1.187 4.81-1.203 4.882l-0.030 0.131-1.044 0.020c-0.574 0.011-1.451 0.022-1.948 0.024l-0.904 0.004zM5.839 27.268c-0.192-0.010-0.36-0.031-0.375-0.045s0.059-0.367 0.163-0.784c0.104-0.417 1.12-4.541 2.258-9.166s2.297-9.333 2.577-10.464c0.28-1.131 0.508-2.068 0.508-2.082s2.261-0.026 5.025-0.026h5.025l0.051 0.204c0.028 0.112 0.925 3.753 1.994 8.090s2.289 9.289 2.712 11.004c0.423 1.715 0.769 3.142 0.769 3.172s-0.033 0.065-0.073 0.079c-0.040 0.014-1.884 0.032-4.098 0.039-3.856 0.012-4.024 0.010-4.024-0.046 0-0.032-0.037-0.588-0.083-1.235-0.085-1.212-0.159-1.968-0.196-2.004-0.012-0.012-0.952-0.026-2.090-0.033l-2.069-0.012-0.019 0.11c-0.034 0.204-0.081 0.79-0.149 1.873-0.037 0.593-0.075 1.14-0.085 1.216l-0.017 0.139-3.729-0.006c-2.051-0.003-3.885-0.014-4.077-0.024zM17.861 20.498c0-0.148-0.037-0.739-0.082-1.313-0.126-1.605-0.11-1.487-0.208-1.525-0.051-0.020-0.711-0.040-1.643-0.051-1.317-0.015-1.561-0.011-1.574 0.028-0.008 0.025-0.060 0.67-0.116 1.433s-0.109 1.458-0.119 1.543l-0.019 0.155h3.761v-0.269zM17.436 14.387c0-0.043-0.014-0.223-0.032-0.4s-0.061-0.755-0.097-1.285c-0.036-0.53-0.074-1.063-0.086-1.185l-0.021-0.222-1.17 0.010c-0.725 0.006-1.182 0.022-1.202 0.042-0.046 0.048-0.272 3.043-0.23 3.058 0.049 0.017 1.237 0.050 1.964 0.055l0.873 0.006zM16.966 7.943c-0.012-0.103-0.058-0.687-0.102-1.298-0.11-1.528-0.112-1.55-0.183-1.621-0.054-0.054-0.119-0.061-0.631-0.061-0.359 0-0.6 0.014-0.652 0.037-0.147 0.067-0.162 0.157-0.248 1.497-0.037 0.566-0.081 1.153-0.098 1.306s-0.031 0.289-0.032 0.302c0 0.013 0.443 0.024 0.984 0.024h0.984zM28.613 27.276l-0.464-0.013-0.051-0.171c-0.118-0.393-5.534-22.279-5.534-22.363 0-0.016 0.395-0.028 0.879-0.028h0.879l0.179 0.531c0.098 0.292 1.607 4.726 3.353 9.853s3.393 9.965 3.66 10.751l0.485 1.429-0.611 0c-0.336 0-0.993 0.005-1.46 0.012s-1.058 0.006-1.313-0.001z"></path>
</svg>