<?xml version="1.0" encoding="UTF-8"?> <svg xmlns="http://www.w3.org/2000/svg" id="icon-gearboxAutomatic" viewBox="0 0 32 32" fill="currentColor" height="1em" width="1em"><path d="M1.106 16v-15.163h29.787v30.326h-29.787zM15.566 25.712c0.416-0.222 0.727-0.535 0.953-0.959 0.162-0.305 0.175-0.435 0.199-2.076l0.026-1.751h1.714c1.651 0 1.724-0.006 1.969-0.173 0.557-0.379 0.574-0.439 0.6-2.14 0.027-1.728-0.014-1.913-0.509-2.291l-0.272-0.207-3.508-0.049-0.022-4.209c-0.022-4.127-0.026-4.216-0.188-4.555-0.217-0.454-0.547-0.786-1.003-1.011-0.351-0.173-0.448-0.182-1.871-0.182s-1.519 0.009-1.847 0.18c-0.477 0.247-0.837 0.604-1.009 1-0.137 0.314-0.145 0.585-0.145 4.555v4.222l-1.751 0.024c-2.017 0.028-2.151 0.065-2.467 0.68-0.17 0.331-0.176 0.406-0.152 1.846 0.028 1.686 0.054 1.786 0.543 2.104l0.317 0.205h3.51v1.733c0 1.962 0.038 2.129 0.612 2.689 0.514 0.501 0.893 0.585 2.544 0.562 1.322-0.018 1.448-0.033 1.759-0.199zM12.387 24.065c-0.098-0.14-0.12-0.436-0.12-1.655v-1.484h2.771v1.534c0 1.292-0.019 1.553-0.121 1.655-0.099 0.099-0.328 0.121-1.266 0.121-1.096 0-1.15-0.007-1.264-0.171zM8.559 18.639c-0.429-0.266-0.499-0.83-0.146-1.183l0.225-0.225h10.048l0.216 0.207c0.232 0.222 0.294 0.657 0.137 0.952-0.205 0.382-0.182 0.381-5.401 0.379-4.402-0.002-4.892-0.014-5.078-0.13zM12.267 12.075c0-3.9 0.004-4.006 0.154-4.156 0.139-0.139 0.257-0.154 1.214-0.154 0.835 0 1.097 0.025 1.232 0.12l0.171 0.12v8.073h-2.771zM24.12 23.767c0-0.173-0.042-0.249-0.154-0.278-0.122-0.032-0.154-0.105-0.154-0.352 0-0.363-0.012-0.371 0.456 0.306l0.361 0.524 0.877 0.046v-1.004c0-0.842 0.019-1.004 0.115-1.004 0.081 0 0.115-0.081 0.115-0.269v-0.269h-1.155v0.269c0 0.188 0.035 0.269 0.115 0.269 0.084 0 0.115 0.087 0.115 0.323v0.323l-0.808-1.186-1.078 0.039-0.024 0.25c-0.018 0.186 0.007 0.25 0.096 0.25 0.174 0 0.179 1.423 0.005 1.49-0.067 0.026-0.115 0.141-0.115 0.278v0.233h1.232v-0.238zM21.181 22.754l-0.024-0.327h-3.233l-0.047 0.654h3.327zM24.815 19.617c0.424-0.216 0.642-0.658 0.596-1.209-0.042-0.504-0.222-0.771-0.68-1.005-0.297-0.152-0.438-0.172-1.073-0.154l-0.731 0.021-0.024 0.25c-0.018 0.186 0.007 0.25 0.096 0.25 0.101 0 0.12 0.119 0.12 0.731 0 0.599-0.021 0.731-0.115 0.731-0.081 0-0.115 0.081-0.115 0.269v0.269h0.811c0.661 0 0.867-0.029 1.115-0.155zM23.966 18.502c0-0.599 0.021-0.731 0.115-0.731 0.251 0 0.423 0.291 0.423 0.714 0 0.452-0.154 0.748-0.389 0.748-0.138 0-0.15-0.058-0.15-0.731zM25.371 14.449c0.189-0.223 0.181-0.604-0.013-0.604-0.081 0-0.163 0.043-0.181 0.096s-0.059-0.018-0.090-0.158c-0.031-0.14-0.12-0.293-0.197-0.341-0.132-0.082-0.129-0.096 0.045-0.233 0.333-0.262 0.197-0.908-0.222-1.054-0.127-0.044-0.59-0.081-1.028-0.081h-0.797v0.233c0 0.136 0.048 0.252 0.115 0.278 0.091 0.035 0.115 0.196 0.115 0.767 0 0.591-0.021 0.723-0.115 0.723-0.081 0-0.115 0.081-0.115 0.269v0.269h1.232v-0.269c0-0.148-0.035-0.269-0.077-0.269s-0.077-0.107-0.077-0.237c0-0.353 0.179-0.239 0.247 0.158 0.031 0.183 0.113 0.394 0.182 0.471 0.237 0.262 0.746 0.253 0.976-0.018zM23.966 12.883c0-0.215 0.030-0.269 0.149-0.269 0.183 0 0.283 0.274 0.156 0.427-0.168 0.202-0.305 0.131-0.305-0.158zM21.181 13.364l-0.024-0.327h-3.233l-0.047 0.654h3.327zM24.12 10.343c0-0.148-0.035-0.269-0.077-0.269s-0.077-0.099-0.077-0.221c0-0.206 0.025-0.224 0.375-0.271 0.511-0.068 0.779-0.32 0.779-0.732 0-0.214-0.056-0.373-0.186-0.523-0.182-0.211-0.206-0.217-1.116-0.242l-0.93-0.026v0.24c0 0.142 0.047 0.258 0.115 0.284 0.091 0.035 0.115 0.195 0.115 0.759s-0.024 0.724-0.115 0.759c-0.067 0.026-0.115 0.141-0.115 0.278v0.233h1.232zM23.966 8.886c0-0.225 0.028-0.275 0.156-0.275 0.304 0 0.278 0.465-0.030 0.525-0.098 0.019-0.126-0.036-0.126-0.25zM21.195 9.342v-0.346h-3.31v0.693h3.31z"></path></svg> 