<?xml version="1.0" encoding="UTF-8"?> <svg xmlns="http://www.w3.org/2000/svg" id="icon-gearboxManual" viewBox="0 0 32 32" fill="currentColor" height="1em" width="1em"><path d="M1.153 16.043v-15.163h29.787v30.326h-29.787zM14.931 25.587v-0.539h-0.423c-0.4 0-0.423 0.011-0.423 0.192 0 0.178-0.027 0.192-0.358 0.192h-0.358l0.147-0.163c0.081-0.090 0.357-0.313 0.614-0.497 0.517-0.369 0.649-0.581 0.649-1.040 0-0.607-0.343-0.968-0.993-1.045-0.459-0.054-0.859 0.071-1.211 0.38l-0.267 0.234 0.572 0.585 0.225-0.189c0.252-0.212 0.533-0.245 0.671-0.077 0.147 0.177 0.034 0.368-0.391 0.657-0.217 0.148-0.546 0.437-0.732 0.643-0.31 0.345-0.337 0.408-0.337 0.79v0.415h2.617zM19.78 25.779c0-0.257-0.030-0.346-0.115-0.346-0.064 0-0.115-0.068-0.115-0.154s0.051-0.154 0.115-0.154c0.081 0 0.115-0.081 0.115-0.269s-0.035-0.269-0.115-0.269c-0.096 0-0.115-0.158-0.115-0.962v-0.962l-1.039 0.001-0.712 0.895c-0.652 0.82-0.712 0.924-0.712 1.231v0.335h0.693c0.641 0 0.693 0.011 0.693 0.154 0 0.103-0.051 0.154-0.154 0.154-0.127 0-0.154 0.051-0.154 0.295 0 0.162 0.023 0.318 0.051 0.346s0.392 0.051 0.808 0.051h0.757v-0.346zM18.006 24.452c0.043-0.074 0.166-0.239 0.272-0.366l0.193-0.231 0.001 0.731h-0.272c-0.238 0-0.262-0.017-0.193-0.135zM24.537 25.916c0.726-0.471 0.722-1.493-0.008-1.954-0.197-0.124-0.335-0.148-0.693-0.119-0.506 0.041-0.557-0.058-0.14-0.27 0.195-0.099 0.306-0.111 0.496-0.052 0.134 0.042 0.298 0.093 0.363 0.113 0.079 0.025 0.163-0.056 0.25-0.24 0.073-0.152 0.132-0.312 0.132-0.355s-0.161-0.15-0.357-0.237c-0.473-0.209-1.196-0.175-1.545 0.074-0.689 0.49-0.868 2.143-0.302 2.778 0.472 0.529 1.223 0.638 1.803 0.261zM23.57 25.237c-0.233-0.163-0.264-0.401-0.071-0.536 0.255-0.179 0.504-0.144 0.608 0.084 0.159 0.349-0.224 0.672-0.537 0.452zM13.955 21.633c0.138-0.058 0.345-0.216 0.459-0.352l0.208-0.247v-3.914h2.925l0.002 1.828c0.001 1.645 0.017 1.861 0.152 2.158 0.192 0.422 0.685 0.673 1.165 0.591 0.377-0.064 0.793-0.453 0.864-0.807 0.027-0.137 0.050-1.042 0.050-2.010v-1.761h2.925v3.92l0.238 0.271c0.542 0.617 1.45 0.497 1.831-0.241 0.061-0.119 0.087-1.582 0.086-5.042-0-4.695-0.006-4.882-0.15-5.119-0.216-0.354-0.502-0.515-0.918-0.515s-0.778 0.186-0.96 0.495c-0.108 0.182-0.126 0.495-0.126 2.145v1.932h-2.925l-0.002-1.828c-0.001-1.644-0.017-1.861-0.151-2.158-0.114-0.252-0.228-0.365-0.479-0.479-0.413-0.187-0.555-0.187-0.967 0-0.252 0.114-0.365 0.228-0.479 0.479-0.135 0.297-0.15 0.514-0.151 2.158l-0.002 1.828h-2.925v-3.92l-0.235-0.267c-0.408-0.465-0.98-0.541-1.466-0.194-0.433 0.308-0.454 0.425-0.454 2.492v1.89h-2.925v-1.842c0-1.118-0.032-1.927-0.082-2.059-0.293-0.775-1.274-0.929-1.835-0.29l-0.238 0.271v2.657c0 2.934 0.006 2.976 0.485 3.268 0.229 0.14 0.4 0.15 2.421 0.151l2.174 0v1.913c0 1.857 0.005 1.92 0.173 2.167 0.192 0.282 0.615 0.539 0.886 0.539 0.097 0 0.29-0.047 0.428-0.105zM18.956 9.649c0.161-0.045 0.4-0.177 0.531-0.295 0.199-0.177 0.244-0.284 0.274-0.634 0.030-0.365 0.009-0.451-0.158-0.649l-0.193-0.229 0.154-0.19c0.204-0.252 0.159-0.848-0.085-1.106-0.335-0.357-1.069-0.452-1.586-0.205-0.553 0.264-0.552 0.263-0.278 0.609l0.247 0.312 0.305-0.159c0.286-0.149 0.317-0.151 0.496-0.033 0.34 0.223 0.213 0.498-0.259 0.561-0.311 0.042-0.319 0.050-0.319 0.336 0 0.289 0.005 0.294 0.319 0.317 0.201 0.015 0.351 0.073 0.404 0.158 0.222 0.353-0.41 0.589-0.802 0.3l-0.209-0.155-0.244 0.251c-0.307 0.317-0.263 0.444 0.245 0.697 0.427 0.213 0.702 0.24 1.156 0.114zM14.546 9.308c0-0.334-0.009-0.346-0.231-0.346h-0.231v-2.694h-0.5c-0.275 0-0.5 0.032-0.5 0.071s-0.169 0.181-0.376 0.315c-0.37 0.24-0.374 0.247-0.295 0.506 0.084 0.273 0.192 0.318 0.445 0.183 0.143-0.077 0.149-0.046 0.149 0.77v0.849h-0.231c-0.222 0-0.231 0.013-0.231 0.346v0.346h2.001zM24.689 9.49c0.444-0.215 0.632-0.528 0.632-1.053 0-0.435-0.085-0.664-0.328-0.877-0.223-0.196-0.654-0.315-0.98-0.271-0.255 0.034-0.285 0.021-0.251-0.107s0.115-0.145 0.683-0.145h0.645v-0.851l-1.96 0.043-0.132 0.693c-0.191 1.004-0.191 1.002 0.172 1.147 0.28 0.112 0.33 0.113 0.479 0.008 0.226-0.158 0.41-0.147 0.594 0.037 0.204 0.204 0.194 0.352-0.037 0.583-0.221 0.221-0.5 0.196-0.792-0.068l-0.174-0.158-0.306 0.298c-0.293 0.286-0.3 0.304-0.172 0.446 0.408 0.451 1.299 0.578 1.926 0.275zM9.8 9.492c0.227-0.104 0.358-0.369 0.358-0.726 0-0.232-0.024-0.266-0.192-0.266-0.12 0-0.192 0.044-0.192 0.115 0 0.063-0.035 0.115-0.077 0.115s-0.077-0.101-0.077-0.225c0-0.128-0.083-0.324-0.193-0.455l-0.193-0.23 0.242-0.242c0.217-0.217 0.238-0.277 0.203-0.587-0.080-0.71-0.437-0.878-1.864-0.878h-1.042v0.346c0 0.257 0.030 0.346 0.115 0.346 0.097 0 0.115 0.162 0.115 1.001s-0.019 1.001-0.115 1.001c-0.086 0-0.115 0.090-0.115 0.346v0.346h1.616v-0.315c0-0.25-0.032-0.323-0.154-0.355-0.124-0.032-0.154-0.105-0.154-0.375 0-0.315 0.010-0.331 0.173-0.271 0.143 0.053 0.182 0.141 0.221 0.5 0.067 0.614 0.332 0.878 0.891 0.889 0.136 0.003 0.331-0.034 0.434-0.081zM8.080 7.153c0-0.315 0.017-0.346 0.187-0.346 0.189 0 0.429 0.178 0.429 0.318 0 0.207-0.173 0.374-0.388 0.374-0.219 0-0.228-0.014-0.228-0.346z"></path></svg> 