<?xml version="1.0" encoding="UTF-8"?> <svg xmlns="http://www.w3.org/2000/svg" viewBox="0 0 19 32"><path d="M8.037 31.773c-.567-.315-2.322-2.372-2.161-2.533.078-.078 1.776-.123 3.773-.099l3.631.043-2.419 2.8-1.232-.006c-.678-.003-1.394-.095-1.591-.205zm-2.522-4.11c-.233-.258-.256-.395-.119-.697.234-.514.704-.582 4.039-.582s3.805.068 4.039.582c.138.303.115.44-.119.697-.274.303-.491.321-3.921.321s-3.646-.018-3.921-.321zm.512-2.348c-.631-.104-.907-.735-.512-1.171.274-.303.491-.321 3.934-.321 3.099 0 3.681.038 3.895.251.311.311.317.557.024.958-.211.289-.46.312-3.56.333-1.833.013-3.535-.011-3.782-.051zm-1.184-3.691c-.143-.868-.546-1.8-2.051-4.747C.595 12.575.171 11.448.052 9.584c-.169-2.643.56-4.729 2.295-6.569C4.241 1.007 6.051.17 8.795.034c3.036-.15 5.242.603 7.213 2.463 1.875 1.768 2.627 3.365 2.813 5.968.158 2.214-.212 3.369-2.59 8.079-1.618 3.204-2.055 4.215-2.2 5.08l-.181 1.08h-2.815l.002-.76c.004-1.538.634-3.18 2.667-6.946 1.855-3.436 2.186-4.431 2.094-6.289-.123-2.469-1.092-3.998-3.19-5.031a7.108 7.108 0 00-6.347 0c-3.016 1.485-4.066 4.73-2.655 8.205.219.539.972 2.032 1.673 3.317 1.898 3.479 2.556 5.247 2.556 6.871v.632H5.02zm3.473-5.342c0-.1.224-.946.498-1.88l.579-1.978c.073-.252-.065-.28-1.378-.28-.831 0-1.459-.066-1.459-.155 0-.24 4.604-6.773 4.884-6.929.297-.166.268-.004-.42 2.351-.255.873-.423 1.628-.373 1.677s.626.117 1.28.151c.654.033 1.189.116 1.189.185 0 .104-2.403 3.86-4.069 6.36-.444.666-.731.861-.731.498z"></path></svg> 