<?xml version="1.0" encoding="UTF-8"?> <svg xmlns="http://www.w3.org/2000/svg" viewBox="0 0 31 32" class="styles__StyledMobileLogo-sc-4vboxd-2 jlwBCT"><path fill="#fff" d="M31.092.104l-.67.426c-.003.004.668-.425.66-.418-.14.136-15.3 12.586-15.324 12.586-.014 0-.023-.639-.023-1.418V9.864l-.242-.004v1.42c0 .78-.017 1.416-.037 1.414S12.027 9.896 7.88 6.481v-.002A1830.11 1830.11 0 01.278.2C.22.135 2.857 1.82 5.815 3.704L.217.143c.065.533.145 1.068.229 1.603.05.173.639 2.903 1.402 6.527l1.439 6.832-.055 2.043c-.034 1.289-.044 1.3-.059 1.58l-.016.828.676 3.535.029.023c.009 0 .004-.011.045.014.066.04 2.7 1.546 5.852 3.346l5.732 3.273v1.078c0 .586-.015 1.053-.035 1.064l.008.006h.293l.004-.002c-.015-.012-.027-.481-.027-1.066v-1.08l5.73-3.271c3.152-1.8 5.788-3.308 5.854-3.348.038-.023.03-.01.041-.012l.037-.029.66-3.547v-.141c-.007-.074-.016-.132-.016-.313 0-.264-.024-1.267-.053-2.229l-.053-1.748 1.439-6.836c.79-3.753 1.442-6.782 1.451-6.758zm-7.183 11.58c-.102.138-7.993 9.678-8.084 9.771-.089.093-.09.074-.09-1.043v-1.137l3.752-3.494 4.113-3.832c.199-.186.338-.306.309-.266zm-16.571.028c-.039-.054.093.053.291.238s2.047 1.909 4.111 3.83l3.752 3.494v1.127c0 .62-.008 1.129-.018 1.129s-1.831-2.187-4.043-4.859a1291.762 1291.762 0 01-4.094-4.959zm.5.986c.012 0 1.739 2.084 3.838 4.633l3.818 4.635-.027 3.023-3.498-5.619c-4.299-6.905-4.157-6.672-4.131-6.672zm15.549 0c.026 0 .218-.311-4.033 6.516l-3.531 5.67c-.088.143-.088.123-.088-1.387v-1.533l3.814-4.633c2.099-2.548 3.827-4.633 3.838-4.633z"></path><path d="M14.746 31.385c-.372-.285-2.967-2.253-5.768-4.373s-5.114-3.877-5.14-3.905c-.027-.027.006-.017.072.023s2.7 1.546 5.852 3.346l5.732 3.273v1.079c0 .594-.016 1.078-.036 1.077s-.34-.235-.712-.52zm.989-.556V29.75l5.732-3.273c3.152-1.8 5.786-3.306 5.852-3.346s.099-.05.072-.022c-.079.083-11.598 8.8-11.628 8.8-.015 0-.028-.486-.028-1.079zM11.97 19.371c-4.299-6.905-4.156-6.673-4.13-6.673.012 0 1.739 2.085 3.838 4.634l3.817 4.634-.026 3.024zm3.765 4.126v-1.533l3.816-4.633c2.099-2.548 3.826-4.633 3.837-4.633.026 0 .218-.311-4.033 6.516l-3.531 5.671c-.088.143-.089.122-.089-1.388zm-4.302-6.826c-2.213-2.673-4.055-4.905-4.094-4.959s.093.053.291.238c.198.186 2.048 1.91 4.112 3.831l3.752 3.493v1.128c0 .62-.008 1.128-.018 1.128s-1.829-2.187-4.042-4.86zm4.302 3.743v-1.138l3.752-3.494 4.114-3.832c.199-.186.338-.305.309-.265a2739.5 2739.5 0 01-8.084 9.772c-.089.093-.091.074-.091-1.043zm-12.589-.872C3.101 19.361.387 1.556.397 1.508c.007-.036.661 3.009 1.452 6.767l1.439 6.832-.054 2.042c-.051 1.952-.071 2.469-.089 2.394zm24.897-.453c0-.263-.024-1.266-.053-2.228l-.053-1.749 1.44-6.836c.792-3.76 1.446-6.806 1.453-6.77.016.079-2.733 18.005-2.765 18.038-.013.013-.023-.192-.023-.456zM7.881 6.48A1830.11 1830.11 0 01.279.201c-.08-.09-.91-.615 7.697 4.87l7.517 4.79v1.419c0 .78-.016 1.417-.036 1.415s-3.429-2.799-7.576-6.214zm7.854 4.801V9.864l7.107-4.529C31.235-.014 31.176.024 31.083.113c-.14.136-15.299 12.585-15.323 12.585-.014 0-.025-.638-.025-1.417zM30.85 1.308c-20.567-.872-10.283-.436 0 0z"></path></svg> 