<?xml version="1.0" encoding="UTF-8"?> <svg xmlns="http://www.w3.org/2000/svg" width="14mm" height="34.39" viewBox="0 0 14 9.1"><path style="fill:currentColor;stroke-width:.0177845" d="M1.6 9.07c-.13-.04-.19-.12-.7-1.02-.5-.84-.5-.87-.51-.98 0-.1 0-.12.04-.2a.6.6 0 0 1 .1-.14c.02-.03.56-.35 1.19-.71l1.16-.68-.02-.21A4.16 4.16 0 0 1 6.51.4a4.23 4.23 0 0 1 3.04.85c.15.11.18.13.21.11a109.65 109.65 0 0 0 2.3-1.31.43.43 0 0 1 .47.06c.05.05.22.32.57.94.49.84.5.87.51.98 0 .1 0 .12-.04.2a.6.6 0 0 1-.1.15l-1.19.7-1.16.68.02.21A4.17 4.17 0 0 1 4.4 7.82c-.08-.06-.13-.1-.15-.09a98 98 0 0 0-2.31 1.32.51.51 0 0 1-.34.02zm.3-.1 2.37-1.36a93239.54 93239.54 0 0 1 9.15-5.3.38.38 0 0 0 .1-.29 5 5 0 0 0-.5-.95 7.14 7.14 0 0 0-.57-.91c-.08-.07-.23-.08-.35-.03l-1.74 1A605276.28 605276.28 0 0 1 .58 6.8a.36.36 0 0 0-.1.28c0 .07.09.22.5.94.27.47.5.87.53.9.09.09.26.11.4.05zm-.21-.23a.3.3 0 0 1-.1-.07 13.65 13.65 0 0 1-.87-1.55c0-.1.07-.23.15-.29l4.74-2.75 5.55-3.2c.93-.54.97-.56 1.13-.52.04.01.1.05.13.07a13.6 13.6 0 0 1 .86 1.55c0 .1-.07.23-.15.3L8 5.24l-5.54 3.2c-.54.31-.61.34-.77.29zm.57-.63c.02-.05.04-.06.1-.07a.9.9 0 0 0 .21-.06l-.03-.05c-.02-.03-.04-.04-.07-.03a.59.59 0 0 1-.36-.13c-.2-.15-.21-.09-.05.19.14.24.16.25.2.15zm.53-.3c.1-.1.13-.2.13-.32a.45.45 0 0 0-.14-.36c-.11-.1-.2-.12-.5-.1-.3 0-.35 0-.4-.1-.02-.05-.02-.06 0-.13.03-.05.03-.07.02-.1-.03-.06-.05-.05-.15.05a.47.47 0 0 0 .02.67c.1.1.18.12.4.11.42-.01.42-.01.47.04.05.06.05.15 0 .22-.03.04-.03.05-.01.1l.02.05.05-.04a.64.64 0 0 0 .1-.09zm.68-.38c.3-.17.36-.22.36-.25s-.01-.04-.08-.04l-.08-.01-.32-.55-.33-.56-.23.13c-.2.1-.23.14-.23.17 0 .04.01.04.06.04.03 0 .06 0 .08.03.05.05.57.97.56 1 0 .01 0 .04-.02.06-.03.04-.02.08.02.08l.2-.1zm-.94-.59c.02-.02.02-.03 0-.08a1.7 1.7 0 0 0-.22-.34c-.02-.01-.05.02-.06.07 0 .02-.03.04-.06.05-.24.05-.24.06-.2.12 0 .02.04.02.11.03.12 0 .24.05.32.13.06.06.07.06.1.02zm2.24-.16c.23-.13.26-.16.26-.2 0-.04 0-.04-.07-.04h-.08l-.32-.55-.33-.56c-.02 0-.4.2-.44.25a.07.07 0 0 0-.03.05c0 .03.02.03.06.03.04 0 .07.02.09.03.05.06.56.97.56 1 0 .02 0 .04-.02.06-.03.03-.03.04-.01.06l.04.03.29-.16zM3.74 6.6c.14-.13.19-.27.14-.43-.09-.3-.35-.4-.64-.27l-.12.07c0 .04.05.08.09.07.06-.01.1.03.22.24.12.2.15.3.1.34-.02.02-.02.03 0 .06.02.05.03.05.08.02a.8.8 0 0 0 .13-.1zm1.66-.25a.34.34 0 0 0 .18-.22c.02-.11 0-.17-.05-.17-.03 0-.04.02-.04.04-.01.08-.06.05-.13-.07a.73.73 0 0 0-.1-.15c-.06-.04-.15-.05-.25-.02a.3.3 0 0 1-.1.02c-.01 0 0-.03.03-.06a.36.36 0 0 0 0-.5c-.1-.12-.27-.13-.48-.03l-.14.07.02.05c.02.04.04.05.08.05.07 0 .1.03.21.22.1.16.11.21.06.26-.02.03-.02.04 0 .08.02.03.04.04.07.03.06-.01.11.04.18.16.09.15.15.23.22.26.06.03.16.02.24-.02zM5.95 6l.2-.11a27.72 27.72 0 0 0-.19-1.51l-.03-.05-.19.1-.2.14a14.58 14.58 0 0 0 .21 1.54l.2-.11zm.51-.3.2-.11-.09-.16c-.15-.26-.2-.27-.2-.06 0 .15-.02.23-.09.3a.13.13 0 0 0-.04.1l.01.05.21-.12zm.59-.34c.12-.07.2-.13.2-.15 0-.02-.66-1.2-.7-1.22 0-.02-.4.21-.45.26-.05.04-.02.08.05.08.08 0 .05-.04.4.57.25.43.26.44.23.49-.04.06-.04.1.01.1.03 0 .14-.06.26-.13zm-1.72-.33c0-.13.01-.16.07-.23.04-.06.05-.1.05-.14v-.05l-.2.11-.19.12.18.31c.06.08.08.05.1-.12zm2.24.03.18-.1-.07-.12c-.11-.2-.15-.24-.18-.24s-.04 0-.03.13c0 .15-.03.22-.1.31-.05.04-.05.05-.03.09l.04.03.2-.1zm.6-.34.21-.13c.02-.02-.71-1.26-.73-1.25l-.23.13c-.18.1-.22.13-.22.17 0 .03.01.04.06.04.03 0 .07.01.08.03.05.05.57.96.57 1l-.02.04-.02.05c0 .07.05.06.3-.08zm-.85-.04c.02-.03 0-.06-.15-.33-.07-.12-.11-.16-.13-.16-.03 0-.03.02-.03.1a.3.3 0 0 1-.02.15c-.02.04-.02.05 0 .1.02.02.05.04.1.04a.4.4 0 0 1 .12.07c.07.06.08.06.1.03zm1.27-.23c.12-.1.16-.21.16-.43 0-.18 0-.19-.08-.35-.14-.28-.31-.42-.55-.47a.37.37 0 0 0-.21.01c-.15.05-.16.06-.12.11.02.03.04.05.06.04.04-.02.1.03.16.11.1.17.46.8.47.84.01.02 0 .05-.01.08-.03.04-.03.06-.01.1 0 .02.02.03.03.03l.1-.07zm.65-.36c.2-.11.21-.17.05-.17l-.08-.02-.12-.4c-.1-.36-.1-.37-.17-.44l-.07-.07.03.12c.12.42.22.84.2.87l-.03.1c-.04.06-.02.11.03.1l.16-.09zm-2.05 0c.03-.02.02-.04-.1-.23l-.08-.15-.18.1-.19.11.03.04c.04.05.03.05.12.03.1-.02.2 0 .29.07.08.06.08.06.11.04zm2.71-.38c.28-.16.32-.19.28-.23l-.05-.02a.3.3 0 0 1-.05 0l-.88-.92-.06-.06-.18.1c-.17.1-.18.1-.17.15 0 .04.11.17.3.38l.31.34-.1.06c-.09.05-.1.06-.09.1.02.08 0 .08.23-.04.05-.03.05-.03.11.03.08.07.1.11.06.16-.02.04 0 .09.03.09l.26-.14zm.6-.35c.17-.1.19-.14.06-.16a.25.25 0 0 1-.13-.05 2.5 2.5 0 0 1-.2-.3c-.12-.23-.15-.27-.22-.31a.28.28 0 0 0-.08-.04s.07.15.18.33c.22.38.23.42.19.52-.06.13 0 .14.2.01zm.7-.4a.65.65 0 0 0 .1-.06l-.1-.2-.12-.2-.5-.29-.48-.28-.24.13a.91.91 0 0 0-.25.17c-.02.04.02.07.08.06.05 0 .15.04.7.37l.67.37.13-.06zm.62-.36.24-.14-.7-1.26c-.02 0-.44.25-.46.27-.04.04-.02.08.06.09h.06l.29.5.28.5-.02.06c-.02.06-.01.1.02.1l.23-.12zm.58-.33a.73.73 0 0 0 .13-.09l-.1-.18c-.07-.13-.1-.18-.13-.18s-.04.01-.04.14c0 .14-.02.21-.1.3-.03.05-.04.06-.02.1l.02.05.06-.04.18-.1zm-1.56-.18c-.14-.25-.15-.3-.12-.38.04-.07.04-.11 0-.13-.02 0-.27.13-.32.18-.04.04-.01.08.05.08.1 0 .15.04.26.22.07.13.11.18.17.21l.08.04-.12-.22zm1.28-.2c0-.03-.21-.42-.26-.46-.02-.02-.03-.02-.05 0-.02.02-.02.04 0 .1 0 .04 0 .07-.02.12-.02.06-.02.07 0 .12.02.03.04.05.05.04.03-.02.13.03.18.07.04.05.09.06.1 0zm-.13-.59a1.1 1.1 0 0 0-.2-.35 1 1 0 0 0-.14.07c-.22.13-.2.12-.18.17.01.04.02.04.15.03.13 0 .14 0 .23.06.1.06.13.07.14.02zM7.56 8.5a4 4 0 0 0 3.37-4.57v-.06l-.1.06-.1.06v.1a3.8 3.8 0 0 1-4.22 4.2 3.85 3.85 0 0 1-1.83-.77c-.03-.02-.05-.02-.13.03a.46.46 0 0 0-.1.07l.17.13a4.06 4.06 0 0 0 2.94.75zm-.25-.28a3.69 3.69 0 0 0 3.33-4.17l-.56.3-.55.33v.06a2.6 2.6 0 0 1-1.39 2.08 2.6 2.6 0 0 1-2.12.07.76.76 0 0 0-.2-.07l-.56.32-.54.31.14.1c.72.5 1.59.75 2.45.67zm-.97-.16A.64.64 0 0 1 6.18 8l.1-.47c.12-.53.09-.48.33-.42.13.03.15.04.15.07 0 .03-.01.04-.04.04s-.04.05-.12.38l-.08.38.03.04c.04.03.02.08-.03.08l-.18-.04zm.86 0A.55.55 0 0 1 7.07 8a.7.7 0 0 1-.14-.52c.03-.17.16-.32.29-.34.06-.01.06-.01.06.03a.1.1 0 0 1-.03.07l-.04.03.04.3c.04.36.06.43.1.44.03 0 .04.02.04.05 0 .04 0 .05-.06.05a.43.43 0 0 1-.13-.04zm.2-.46a7.5 7.5 0 0 1-.06-.49l.33-.04c.05 0 .08.05.04.07-.02.01-.03.04-.03.08 0 .1.08.7.1.72l.03.02c.04 0 .03.07-.01.08l-.34.04-.07-.48zM6.02 8l-.14-.04-.06-.01.02-.08c.04-.17.05-.2.08-.2.01 0 .04.04.05.1.02.06.05.1.09.12.04.02.06.05.06.07 0 .05-.01.06-.1.04zm2.15-.55a2.13 2.13 0 0 0-.38-.38c0-.02.05-.05.18-.12.2-.1.27-.1.23-.03-.02.04 0 .08.04.12.02.02.04.01.12-.02l.08-.05.02.05v.05l-.07.04-.06.03.19.22c.1.12.2.24.2.26 0 .04 0 .05-.11.1a.98.98 0 0 1-.14.07l-.3-.34zm-2.15.25c-.01-.02.04-.3.07-.34.02-.05.06-.04.07.02l.04.1c.03.05.02.1-.03.12a.19.19 0 0 0-.07.07c-.04.05-.06.06-.08.03zm2.6-.29a.8.8 0 0 1-.1-.28c-.06-.3-.06-.3-.13-.3-.03 0-.06-.02-.06-.04s.18-.14.23-.14c.04 0 .05.03.02.08-.04.05-.03.1.04.42l.05.3c0 .02-.02 0-.05-.04zM6 7.27A.83.83 0 0 1 6.04 7l.14.01c.12.03.14.04.14.08 0 .03-.01.04-.08.05-.07 0-.1.03-.15.08-.07.09-.08.1-.1.05zm3.31-.21a.24.24 0 0 1-.14-.3l.02-.06-.05.03c-.09.05-.16.05-.25-.03-.1-.07-.1-.07-.1-.02 0 .06-.07.04-.09-.03-.05-.15.1-.33.25-.28a.7.7 0 0 1 .13.09c.08.06.11.08.15.07.07 0 .1.03.1.08 0 .03 0 .06.07.12.1.1.13.11.2.1.03 0 .06.02.08.03.04.05-.2.23-.3.22-.01 0-.04 0-.07-.02zm.08-.5c-.22-.2-.33-.29-.35-.28-.05.02-.08.01-.09-.01 0-.04.28-.36.3-.35.02 0 .03.03.04.06 0 .05.05.1.28.3.24.21.28.24.33.23.03 0 .05 0 .06.02 0 .03-.02.07-.14.2l-.1.11zm.63-.47c-.09-.04-.12-.06-.12-.08 0-.03.01-.04.1-.04l.17-.01c.09-.02.1 0 .07.1-.04.1-.05.1-.22.03zm-.17-.33c-.36-.13-.4-.14-.41-.11-.03.04-.08.04-.08 0 0-.03.07-.26.13-.4.02-.05.08-.04.08.02.01.05 0 .04.61.27.12.04.2.08.2.1l-.04.14c-.03.1-.05.13-.07.13l-.42-.15zm.54-.2a.98.98 0 0 1-.14-.12c-.16-.16-.13-.19.1-.1.07.02.13.05.13.06 0 .06-.07.17-.09.16zM7.4 6.93a2.41 2.41 0 0 0 2-2.13c0-.03 0-.03-.07 0-.06.03-.07.05-.07.09A2.3 2.3 0 0 1 7.45 6.8c-.12.02-.23.03-.45.03a1.9 1.9 0 0 1-.74-.12l-.15-.05-.07.04-.08.03.07.03c.16.08.5.17.68.19.15.02.53 0 .68-.02zm.05-.2c.28-.05.56-.17.81-.33.18-.12.52-.46.63-.65.15-.24.27-.56.32-.81v-.08l-.3.19-1.52.87c-1.02.59-1.2.7-1.17.71a2.1 2.1 0 0 0 1.23.1zm-4.18-1.6v-.1A3.79 3.79 0 0 1 7.48.82c.64.08 1.2.3 1.72.68l.15.1.1-.05a.4.4 0 0 0 .09-.06A4.07 4.07 0 0 0 6.5.59a4 4 0 0 0-3.45 4.49l.02.16.09-.05.1-.06zm.67-.39.54-.31v-.07a2.6 2.6 0 0 1 1.39-2.08 2.57 2.57 0 0 1 2.12-.07l.18.07 1.05-.6.07-.03-.14-.1a3.68 3.68 0 0 0-5.77 3.5l.56-.3zm-.5-.41c0-.02 0-.12.05-.33.02-.1.05-.12.1-.07.03.04.04.04.34 0l.3-.03.12.06.12.05-.01.08-.02.1-.45.06a2.5 2.5 0 0 0-.47.07c-.03.03-.06.03-.08 0zm.4-.53c-.15-.08-.17-.09-.22-.04-.02.02-.04.04-.06.04-.02 0-.02-.02-.01-.12l.02-.14c.02-.05.06-.03.09.03.02.06.05.08.25.17l.22.12h-.08a.5.5 0 0 1-.2-.06zm.68-.27c0-.04-.05-.07-.33-.23-.31-.18-.37-.2-.39-.16-.02.02-.04.02-.06-.01 0-.03.15-.33.18-.33s.83.45.83.47l-.08.16c-.09.16-.14.2-.15.1zm.25-.34c-.02-.01-.03-.05-.03-.11a.24.24 0 0 0-.05-.17c-.07-.1-.03-.12.1-.04a.8.8 0 0 1 .13.08s-.02.07-.06.13c-.05.1-.07.12-.1.11zm-.42-.22c-.02 0-.03-.03-.03-.05a.17.17 0 0 0-.03-.09c-.09-.1-.02-.11.16 0 .16.09.18.13.07.13h-.18zm.63-.2V2.7c0-.01-.07-.12-.17-.23a1.4 1.4 0 0 1-.16-.2c.03-.03.12.04.22.15.15.18.21.23.27.22.1-.02.09.03-.01.12-.12.1-.15.1-.15.03zm-1-.02c-.03-.02-.02-.04.03-.14l.07-.13.13.07c.15.08.15.12.02.12-.08 0-.1 0-.16.05-.07.05-.07.05-.1.03zm.98-.45a2.5 2.5 0 0 0-.5-.15c-.1 0-.08-.04.08-.17a.63.63 0 0 1 .15-.12l.37.12.34.13.1.12.1.12-.06.05c-.04.03-.08.06-.1.06l-.48-.16zm.93-.14.03-.06c.03-.03.02-.06-.12-.43-.08-.22-.14-.4-.13-.42 0-.01.27-.11.28-.1l.12.32c.19.52.17.5.22.5.05 0 .07.02.04.06-.03.02-.36.15-.4.15-.03 0-.04-.01-.04-.02zm2.04 0c-.03-.04.01-.09.06-.09.02 0 .06-.01.08-.03.05-.06.03-.12-.1-.26s-.17-.23-.15-.34c0-.09.08-.2.15-.24.06-.02.25-.04.27-.02.03.03-.01.09-.05.1-.06 0-.1.06-.08.12 0 .01.06.09.13.16a.6.6 0 0 1 .14.2.3.3 0 0 1-.12.34c-.05.04-.09.05-.19.06h-.14zm-.15-.1a.2.2 0 0 0-.12-.05H7.6c-.02-.03.1-.32.13-.33.03 0 .03 0 .04.06 0 .1.02.2.06.26.08.1.04.15-.06.06zM5.24 2a.63.63 0 0 1-.16-.13c-.1-.1-.11-.11-.16-.1-.04 0-.06 0-.07-.02-.01-.04.15-.18.2-.19.03 0 .03.01.02.08-.01.08 0 .08.12.23l.12.16L5.24 2zm1.66-.03a.33.33 0 0 1-.2-.13c-.03-.05-.04-.09-.04-.4 0-.34 0-.35-.04-.38C6.55 1 6.6 1 6.82 1c.18 0 .22 0 .23.02 0 .02 0 .04-.03.06-.04.02-.04.04-.04.4 0 .35 0 .37.04.4.02 0 .03.03.03.06 0 .04 0 .05-.05.05-.02 0-.07 0-.1-.02zm.22-.02c0-.03.02-.05.05-.07a.28.28 0 0 0 .09-.07c.03-.05.03-.08.04-.35v-.3l-.05-.06L7.2 1c.02-.03.25-.02.28.01.02.02.01.03-.02.06-.07.04-.09.11-.09.4 0 .25 0 .28-.04.35a.28.28 0 0 1-.17.15c-.03.01-.04 0-.04-.03zm-1.6-.32a1.62 1.62 0 0 1-.1-.28s.03-.03.08-.04c.1-.03.12-.02.1.06l-.01.16c0 .11-.02.15-.06.1zm2.88 0-.01-.09c0-.08-.04-.17-.08-.2-.03-.03-.04-.09-.01-.1.01-.01.05 0 .09.04.05.04.08.05.11.04.06-.01.06.02 0 .17-.04.14-.07.17-.1.13zm-2.24-.3a.4.4 0 0 0-.1-.1c-.03-.02-.07-.09-.05-.1l.16-.06.06.14c.07.2.03.26-.07.12zm-1.42 2.9A2.3 2.3 0 0 1 6.56 2.3c.1-.02.23-.02.43-.02.32 0 .44.01.72.1l.2.07.06-.04.06-.04-.07-.03a2.37 2.37 0 0 0-2.66.5c-.35.36-.59.8-.67 1.29-.04.23-.05.22.04.18.06-.03.07-.04.07-.09zm1.6-.88c.96-.55 1.47-.85 1.46-.87l-.16-.06a2.24 2.24 0 0 0-1.9.3c-.17.11-.5.46-.62.65-.15.24-.27.56-.32.8l-.01.09.04-.03 1.52-.88z"></path></svg> 