<?xml version="1.0" encoding="UTF-8"?> <svg xmlns="http://www.w3.org/2000/svg" viewBox="0 0 32 32"><path d="M13.232 31.798C6.917 30.601 2.083 26.077.482 19.865-1.265 13.086 1.91 5.72 8.103 2.188a16.142 16.142 0 016.33-2.06l1.08-.113v16.744l11.214 11.218-1.167.842c-1.604 1.156-4.083 2.329-5.807 2.746-1.873.453-4.811.559-6.522.235zm6.042-2.61c1.218-.329 2.705-.927 3.247-1.308.332-.233.202-.383-4.525-5.2l-4.867-4.96-.007-7.48c-.004-4.114-.031-7.48-.061-7.48-.284 0-2.34.78-3.218 1.221-1.503.755-2.39 1.43-3.726 2.836-3.226 3.396-4.418 8.067-3.237 12.685.625 2.445 1.815 4.432 3.777 6.308 2.129 2.036 4.3 3.14 7.231 3.677 1.139.209 4.117.043 5.387-.299zm2.599-7.189c-2.881-2.883-5.239-5.287-5.239-5.343 0-.158 15.16-.17 15.258-.012.113.182-.157 2.079-.483 3.396-.361 1.462-1.301 3.576-2.133 4.798-.71 1.044-1.877 2.402-2.064 2.402-.055 0-2.458-2.358-5.34-5.241zm-5.452-6.386c-.137-.137-.138-9.756-.001-13.058L16.525.03l.975.105c3.832.415 7.069 2.007 9.855 4.85 2.472 2.522 3.868 5.338 4.39 8.855.137.924.25 1.726.25 1.78 0 .135-15.439.128-15.573-.007z"></path></svg> 