<?xml version="1.0" encoding="UTF-8"?> <svg xmlns="http://www.w3.org/2000/svg" viewBox="0 0 34 32"><path d="M.052 25.359c0-6.2.016-6.571.28-6.464 2.468 1.001 4.274.978 4.831-.062.103-.193.078-.569-.077-1.152-.44-1.654-.214-2.403.811-2.686.801-.221 1.616.043 1.915.62s.301 1.119.006 2.226c-.461 1.73.336 2.078 3.497 1.525.854-.149 1.481-.191 1.568-.103.269.269.605 1.865.607 2.884.003 1.672-.293 1.903-1.678 1.309-.411-.176-.888-.32-1.061-.32-1.019 0-1.899 1.169-1.899 2.524 0 .639.078.851.44 1.196.874.834 1.686.902 2.972.251.48-.243.662-.269.84-.121.28.232.285.675.036 3.07l-.196 1.88H.052zm13.863 6.461l-.457-.068.137-.908c.075-.499.137-1.536.137-2.304 0-1.229-.043-1.438-.355-1.751l-.355-.355-1.085.353c-1.377.448-1.727.441-2.212-.044-.32-.32-.393-.553-.393-1.258 0-1.588.781-2.094 2.393-1.551 1.188.4 1.485.403 1.833.019.336-.371.371-1.93.079-3.563-.108-.603-.166-1.124-.13-1.159s.606.034 1.266.152c1.26.227 3.316.301 3.747.136.401-.154.298-.522-.307-1.093-.509-.48-.56-.608-.56-1.417 0-.713.079-.982.397-1.36 1.022-1.215 3.12-.447 3.123 1.142 0 .25-.152.958-.339 1.573-.193.635-.279 1.178-.2 1.256.077.076.57.207 1.096.289 1.164.182 2.294-.07 3.564-.797.472-.27.887-.462.922-.427s.114 3.031.176 6.657l.112 6.593-6.066-.024c-3.336-.013-6.271-.055-6.522-.092zM8.926 19.304c-.673-.273-.79-.592-.584-1.589.249-1.203.239-1.698-.043-2.244-.372-.719-1.593-1.099-2.633-.818-1.188.32-1.583 1.499-1.038 3.098.417 1.223.336 1.28-1.659 1.18-.944-.047-1.987-.177-2.317-.287l-.6-.201V5.537l6.04.002c3.322.001 6.202.045 6.399.098.483.129.834 1.309.946 3.179.064 1.078.031 1.512-.132 1.727-.208.274-.268.268-1.299-.12-2.235-.841-2.994-.399-2.994 1.743 0 .928.052 1.104.465 1.566.571.639 1.269.672 2.557.118.847-.364.865-.365 1.096-.062.19.249.219.71.152 2.389-.046 1.144-.128 2.194-.183 2.334-.069.176-.631.361-1.822.6-1.902.382-1.887.381-2.349.194zm16.105-1.628c-1.608-.267-3.219-1.234-3.219-1.932 0-.179.339-.509.875-.852 1.037-.663 1.205-.931 1.205-1.921 0-.968-.387-1.601-1.226-2.008-1.277-.618-2.629.087-2.855 1.491-.149.927-.465 1.397-.868 1.291-.368-.096-2.891-2.668-2.891-2.948 0-.102.414-.648.92-1.213 1.553-1.734 1.96-2.309 1.96-2.771 0-.57-.267-.775-1.168-.898-1.525-.209-2.146-1.065-1.718-2.364.191-.578.88-1.276 1.433-1.452.584-.185 1.403.326 2.026 1.264.326.491.71.892.854.892.701 0 1.71-1.287 2.351-2.998.223-.595.454-1.131.513-1.192.104-.106 9.871 6.767 10.487 7.38.292.29.271.337-.869 1.954-4.62 6.554-5.825 8.173-6.181 8.308-.436.166-.437.166-1.63-.032z"></path></svg> 