<?xml version="1.0" encoding="UTF-8"?> <svg xmlns="http://www.w3.org/2000/svg" width="200mm" height="180mm" viewBox="0 0 200 180" class="styles__MapLocation-sc-1scuaaq-6 iGjjCR"><path d="M62.168 36.726l-3.358-1.98.37-1.125c.203-.62 1.516-4.817 2.918-9.328 1.402-4.511 2.687-8.34 2.856-8.508.169-.168 6.022-2.71 13.007-5.65 6.985-2.939 12.912-5.457 13.172-5.595.382-.203 1.323.375 4.891 3.004l4.42 3.255-2.336.077c-1.692.056-2.304.165-2.217.397.065.176.336 1.481.602 2.9.265 1.419.576 2.58.69 2.58.116 0 .897-.309 1.738-.685.841-.377 1.827-.795 2.19-.93.633-.232.627-.21-.133.487-.437.402-1.103.971-1.48 1.265l-.685.535-.596 9.784c-.328 5.381-.63 9.82-.672 9.864-.042.043-5.91-.165-13.042-.463-7.132-.299-13.724-.538-14.65-.532l-1.682.012L67.16 37.4c-.557.722-1.152 1.31-1.323 1.308-.172-.002-1.823-.895-3.67-1.983z"></path><path d="M104.589 43.517l-5.387-5.73.158-2.778c.087-1.528.236-5.914.332-9.747.117-4.723.267-6.996.466-7.054.376-.11 70.36-.665 70.467-.558.044.044-6.303 5.546-14.105 12.225L142.334 42.02l-15.518 3.484c-8.535 1.915-15.815 3.541-16.18 3.613-.579.114-1.33-.582-6.047-5.6zM9.169 61.082c-2.416-2.927-2.896-3.655-2.828-4.282.127-1.16 4.53-25.83 4.629-25.929.047-.048 1.239.93 2.648 2.171 1.41 1.242 2.56 2.103 2.558 1.914-.006-.472-.947-4.058-1.151-4.388-.09-.147-1.12-.956-2.289-1.797-1.168-.84-2.032-1.611-1.92-1.711.113-.1 1.693-.492 3.512-.87 3.378-.701 45.206-9.709 47.354-10.197.65-.148 1.202-.246 1.225-.218.08.096-6.127 19.364-6.366 19.763-.13.218-2.413 3.85-5.072 8.07l-4.834 7.673-5.768 2.216a7528.589 7528.589 0 00-17.014 6.579c-6.184 2.399-11.363 4.4-11.509 4.447-.146.047-1.574-1.501-3.175-3.44zM84.178 70.265c-6.62-2.55-12.088-4.68-12.15-4.734-.06-.053-.925-5.127-1.92-11.275a8626.371 8626.371 0 00-2.05-12.633c-.22-1.333-.185-1.537.431-2.441.37-.542.807-1.098.971-1.235.284-.236 28.628.8 28.83 1.054.152.19 7.024 8.496 8.648 10.451l1.557 1.875-1.195 2.887c-.658 1.588-2.5 6.102-4.096 10.031-1.595 3.93-2.986 7.266-3.091 7.414-.178.25-2.59 2.285-3.5 2.95-.308.227-3.058-.733-12.435-4.344zM160.872 61.404a11385.42 11385.42 0 00-14.303-16.096l-2.036-2.273 3.226-2.75c1.775-1.514 5.244-4.48 7.709-6.594C169.69 21.5 173.723 18.076 173.856 18.08c.082.002 2.976 9.973 6.431 22.158l6.283 22.155-6.543 6.416c-3.6 3.53-6.621 6.416-6.716 6.416-.094 0-5.692-6.22-12.44-13.821zM17.634 100.67l-2.509-3.087v-2.25c0-1.236.122-5.975.272-10.53l.271-8.281-.603-.847c-.525-.737-.644-1.392-.917-5.075-.173-2.326-.292-4.243-.265-4.26.027-.017 4.513-1.77 9.97-3.893a4056.815 4056.815 0 0012.899-5.04c1.637-.647 2.976-1.062 2.976-.92 0 .328-2.054 18.294-2.235 19.55-.129.89.126 1.287 4.489 6.988 2.544 3.325 4.626 6.134 4.626 6.243 0 .109-1.102.787-2.448 1.507-1.346.72-5.483 2.953-9.194 4.962-3.71 2.01-8.564 4.635-10.785 5.836l-4.038 2.183z"></path><path d="M74.272 106.532c-.236-.847-.518-1.759-.627-2.026-.108-.266-5.69-3.838-12.405-7.937l-12.208-7.453-4.769-6.249-4.768-6.248 1.17-10.42c.644-5.731 1.173-10.562 1.176-10.735.002-.173 1.285-.81 2.85-1.416l2.845-1.101 5.1-8.152 5.099-8.152 3.763 1.94c2.385 1.23 3.884 2.166 4.093 2.556.182.34 1.225 6.442 2.319 13.562 1.093 7.12 2.016 12.968 2.05 12.996.035.027 3.576 1.383 7.868 3.013 15.002 5.696 16.934 6.457 16.934 6.672 0 .119-1.739 2.867-3.863 6.107-4.47 6.818-7.49 11.431-12.389 18.922-1.926 2.946-3.571 5.426-3.655 5.51-.084.083-.346-.541-.583-1.389zM141.593 112.305c-2.401-.836-7.164-2.458-10.583-3.603-3.42-1.146-6.312-2.162-6.427-2.259-.115-.097.19-3.903.68-8.46l.887-8.283-11.263-7.444c-6.194-4.094-11.706-7.717-12.25-8.05-.967-.593-.98-.624-.642-1.447.19-.462 2.172-5.365 4.404-10.895 2.233-5.53 4.133-10.14 4.222-10.247.09-.106 6.589-1.682 14.443-3.502 7.854-1.82 14.994-3.488 15.868-3.707l1.587-.396.774.856c.426.471 4.831 5.37 9.79 10.887 4.958 5.517 11.117 12.363 13.685 15.214l4.67 5.183-10.755 5.387c-5.916 2.962-10.773 5.403-10.794 5.424-.021.02-.648 5.632-1.393 12.472-1.647 15.13-1.544 14.423-2.098 14.406-.242-.008-2.404-.699-4.805-1.536z"></path><path d="M98.334 117.055l-9.26-3.886-6.35-1.286c-3.493-.707-6.449-1.371-6.569-1.476-.195-.17 1.327-2.601 8.862-14.147 1.235-1.892 2.823-4.333 3.53-5.424 6.864-10.609 8.28-12.601 10.099-14.205l1.856-1.638.9.623c1.427.987 21.665 14.397 22.073 14.625.31.174.225 1.487-.534 8.26l-.903 8.052-7.222 7.194-7.222 7.194zM175.928 137.834l-7.867-.828-5.495-5.3c-3.022-2.915-6.49-6.249-7.707-7.409-2.039-1.942-2.355-2.392-4.026-5.724l-1.813-3.615 1.027-8.952c.565-4.924 1.24-10.84 1.499-13.145l.47-4.193 10.557-5.28c5.806-2.903 10.654-5.243 10.772-5.2.118.044 4.739 9.129 10.267 20.189l10.053 20.108-1.18 1.216-1.182 1.215.95 1.62.948 1.62-.073 3.757-.074 3.759-3.147.867c-1.732.477-3.234.962-3.34 1.08-.105.116-.58 1.313-1.056 2.66-.625 1.77-.981 2.438-1.29 2.415-.235-.018-3.967-.405-8.293-.86zM118.67 137.198l-5.064-3.894-.72-3.176a552.463 552.463 0 00-1.487-6.351l-.768-3.175 6.272-6.086c3.449-3.347 6.397-6.07 6.55-6.05.32.039 21.87 7.053 22.944 7.467.532.205 1.125 1.063 2.425 3.51l1.72 3.238-1.302 1.606c-.717.883-3.635 4.583-6.485 8.22-2.85 3.639-5.218 6.653-5.262 6.7-.055.056-13.76 1.937-13.76 1.887 0-.002-2.278-1.755-5.063-3.896z"></path><path d="M46.363 139.405c-2.048-2.828-3.724-5.233-3.724-5.343 0-.111.905-1.377 2.011-2.814 1.106-1.436 1.97-2.64 1.918-2.675-.05-.035-.577-.437-1.168-.892-.839-.646-2.077-1.098-5.627-2.056l-4.553-1.227-5.485-3.182-7.601-4.41c-1.165-.675-2.177-1.228-2.25-1.23-.072 0-.191.525-.264 1.168-.128 1.13-.176 1.185-1.455 1.633-.728.255-1.454.473-1.613.484-.474.034 3.014-12.465 3.626-12.993.285-.245 2.746-1.601 5.47-3.013 2.724-1.411 7.274-3.79 10.112-5.287 2.837-1.496 6.874-3.61 8.97-4.699l3.81-1.979 3.086 1.891 11.691 7.165 8.607 5.273.812 2.467.813 2.467-5.179 7.209c-2.848 3.964-6.894 9.59-8.991 12.5l-3.813 5.292.161 1.587c.089.873.22 2.123.293 2.778l.132 1.19-2.855 1.92c-1.57 1.054-2.934 1.917-3.032 1.917-.098 0-1.854-2.313-3.902-5.141z" fill="navy"></path><path d="M70.222 146.254c-.91-1.062-1.653-2.03-1.652-2.15 0-.12.424-.507.94-.858 1.188-.81 1.36-1.146 1.578-3.078l.177-1.575-6.706-1.551c-3.689-.854-6.806-1.644-6.927-1.756-.122-.112 1.545-2.589 3.704-5.504 2.158-2.915 5.83-7.887 8.158-11.048 2.328-3.161 4.412-5.965 4.63-6.23.381-.464.66-.43 7.052.897l6.655 1.38-6.804 15.557c-6.244 14.277-6.9 15.652-7.978 16.703l-1.174 1.144z" fill="#1409a0"></path><path d="M92.904 163.563c-2.769-5.234-2.642-5.063-4.16-5.607-1.527-.547-1.527-.548-1.795-3.915-.1-1.253-.258-2.394-.352-2.534-.093-.14-2.389-1.435-5.1-2.876-4.431-2.355-4.91-2.675-4.717-3.154.118-.294 1.096-2.617 2.173-5.164 1.077-2.547 3.905-9.244 6.285-14.883 2.38-5.639 4.468-10.252 4.641-10.252.316 0 17.384 6.877 18.348 7.392.401.215.756 1.284 1.606 4.842 1.697 7.106 2.317 5.514-5.394 13.845a1637.185 1637.185 0 01-7.746 8.333l-1.152 1.207 3.844 4.743c2.114 2.61 3.836 4.805 3.827 4.879-.023.19-7.73 6.688-8.059 6.797-.148.048-1.16-1.595-2.249-3.653z"></path><path d="M108.406 166.598l-2.363-6.257-3.56-4.391a656.77 656.77 0 00-3.911-4.8c-.306-.354.636-1.394 7.113-7.854l7.465-7.446 4.498 3.181a847.666 847.666 0 005.093 3.585c.54.366 1.213.323 7.336-.47 3.708-.481 6.803-.813 6.878-.738.167.167.68 2.738 2.92 14.648.957 5.093 1.808 9.484 1.89 9.757.135.45.038.482-1.003.34a86.393 86.393 0 00-3.072-.334l-1.918-.174v2.395l-1.749.304-1.748.305-1.184-.922c-.651-.507-1.323-.878-1.492-.824-.17.054-1.933.474-3.917.932l-3.608.833-2.402 2.095-2.403 2.094h-6.5l-2.363-6.257zM161.437 171.13l-10.187-4.357H144.081l-1.143-5.623c-1.567-7.705-3.95-19.255-4.12-19.962-.11-.462 1.194-2.21 6.376-8.544 3.582-4.38 6.61-7.929 6.729-7.886.288.105 1.954 1.667 8.91 8.359l5.88 5.654 8.523.898c4.688.494 8.602.93 8.697.97.096.04-1.325 3.23-3.158 7.09-8.088 17.042-10.872 23.005-10.872 23.29 0 .145.478 1.213 1.062 2.374.583 1.161.97 2.108.86 2.104-.111-.004-4.786-1.968-10.388-4.365z"></path><path d="M46.862 139.334c-1.767-2.485-3.213-4.87-3.213-5.302 0-.431.734-1.777 1.63-2.99 2.153-2.911 1.247-3.962-4.856-5.638-2.591-.711-8.189-3.306-12.44-5.765-4.25-2.46-7.867-4.473-8.038-4.473-.17 0-.488.68-.706 1.512-.217.832-.794 1.512-1.282 1.512-1.001 0-.6-2.439 1.391-8.473l1.244-3.77 14.02-7.262 14.019-7.262 11.448 7.039c15.729 9.67 15.485 8.198 3.988 24.125-8.358 11.578-9.018 12.74-8.644 15.219.366 2.435.155 2.843-2.273 4.386-1.472.935-2.766 1.691-2.876 1.68-.11-.01-1.645-2.053-3.412-4.538z" fill="#1409a0"></path><path d="M51.48 124.385c-.336-.563-.482-.81-3.526-5.97-.878-1.486-.996-1.702-1.286-2.34-.472-1.044-.622-1.672-.567-2.386a5.206 5.206 0 011.535-3.31c1.141-1.145 2.801-1.775 4.385-1.663.322.022.69.069.92.116 1.64.336 3.046 1.382 3.81 2.834.475.904.68 1.934.556 2.78-.081.55-.253 1.032-.67 1.875-.267.541-.367.723-.81 1.473-.191.324-.75 1.274-1.24 2.111-2.284 3.897-2.815 4.786-2.88 4.826-.008.005-.11-.15-.226-.346zm.654-7.934a3.076 3.076 0 001.684-.826c.511-.489.796-1.023.904-1.693a3.447 3.447 0 000-.834c-.163-1.096-.978-2.044-2.07-2.407-.228-.076-.388-.102-.762-.125-.41-.025-.725-.005-.994.065a3.116 3.116 0 00-1.913 1.417 3.01 3.01 0 00-.377 1.053c-.024.205-.01.787.025.971.196 1.061 1.119 2.025 2.206 2.305.18.047.443.092.611.105a4.49 4.49 0 00.686-.03zM64.404 117.499c-.233-.39-.334-.562-2.446-4.14-.608-1.03-.69-1.18-.89-1.623-.329-.724-.432-1.16-.394-1.655a3.61 3.61 0 011.064-2.294c.791-.795 1.943-1.232 3.041-1.154.223.016.478.048.638.08a3.858 3.858 0 012.642 1.966c.33.627.472 1.34.385 1.928-.056.381-.175.715-.464 1.3-.185.375-.255.501-.562 1.021l-.86 1.464c-1.584 2.702-1.952 3.32-1.997 3.347a1.746 1.746 0 01-.157-.24zm.453-5.502a2.133 2.133 0 001.168-.573c.355-.339.552-.71.627-1.174a2.39 2.39 0 000-.578c-.113-.76-.678-1.417-1.436-1.67-.157-.052-.269-.07-.528-.086a2.207 2.207 0 00-.69.045 2.161 2.161 0 00-1.325.983 2.087 2.087 0 00-.262.73 3.72 3.72 0 00.017.673c.136.736.776 1.404 1.53 1.599.125.032.307.063.424.073.098.008.359-.004.475-.022z"></path></svg> 