<?xml version="1.0" encoding="UTF-8"?> <svg xmlns="http://www.w3.org/2000/svg" id="icon-powerhorse" viewBox="0 0 32 32" fill="currentColor" height="1em" width="1em"><path d="M7.38 5.159v1.665h3.037v1.169l-0.302 0.019c-0.166 0.010-1.041 0.024-1.944 0.031s-1.649 0.020-1.658 0.029c-0.009 0.009-0.030 0.484-0.047 1.057s-0.032 1.053-0.032 1.066c-0 0.013-0.743 0.024-1.65 0.024h-1.649v5.42h-1.469v-3.755h-1.665v9.11h1.665l0-0.857c0-0.471 0.010-1.308 0.022-1.859l0.022-1.002 0.199-0.017c0.109-0.009 0.43-0.026 0.713-0.036l0.514-0.019v5.456l3.771 0.001 2.896 3.975 1.115 0.019c0.614 0.011 3.711 0.026 6.883 0.035l5.767 0.016 0.167-0.578c0.092-0.318 0.306-1.078 0.477-1.688s0.338-1.206 0.371-1.322l0.061-0.212 0.916-0.018 0.557 1.38c0.306 0.759 0.663 1.649 0.794 1.976l0.237 0.596h4.854v-16.936l-1.543-0.022c-0.849-0.012-1.933-0.022-2.41-0.022l-0.867-0-0.463 1.137c-0.254 0.625-0.621 1.537-0.814 2.026l-0.351 0.889-0.442-0.022c-0.243-0.012-0.448-0.027-0.455-0.033s-0.257-0.868-0.555-1.914l-0.542-1.903-2.366-0.017-0.009-1.004-0.009-1.004-3.869-0.017v-1.175h3.037v-1.665h-12.963zM8.098 9.661l5.722 0.023c3.147 0.012 5.728 0.028 5.736 0.034 0.012 0.010 0.062 1.346 0.067 1.784l0.002 0.188h2.706l0.049 0.171c0.142 0.493 1.033 3.68 1.033 3.696 0 0.010 0.736 0.015 1.635 0.010l1.635-0.008 0.813-2.021c0.447-1.112 0.818-2.026 0.824-2.031 0.015-0.015 1.989 0.048 2.005 0.064 0.014 0.014 0.034 3.404 0.058 9.678l0.015 3.992h-2.087l-0.044-0.106c-0.070-0.167-1.377-3.409-1.485-3.682l-0.097-0.245-3.26-0.017-0.515 1.821c-0.283 1.001-0.529 1.868-0.547 1.927l-0.033 0.106h-1.851c-1.018 0-3.647-0.010-5.843-0.022l-3.993-0.022-2.918-4.006h-2.925v-9.11h3.298v-2.224zM16.032 12.467c-1.377 0-2.503 0.016-2.503 0.036s-0.196 1.257-0.435 2.75c-0.239 1.493-0.435 2.73-0.435 2.75s0.296 0.036 0.658 0.036c0.609 0 0.655 0.006 0.628 0.076-0.172 0.442-2.026 5.463-2.026 5.486 0 0.038-0.354 0.406 3.875-4.017l3.622-3.788-1.206-0.012c-0.935-0.009-1.201-0.024-1.185-0.065 0.012-0.030 0.357-0.761 0.766-1.626s0.745-1.585 0.745-1.6c0-0.015-1.127-0.027-2.503-0.027zM14.14 13.163h1.658c1.309 0 1.654 0.011 1.637 0.054-0.012 0.030-0.357 0.762-0.767 1.627s-0.745 1.585-0.745 1.599c0 0.015 0.419 0.032 0.932 0.038l0.932 0.012-1.936 2.024c-1.065 1.113-1.984 2.073-2.043 2.133l-0.108 0.109 0.128-0.348c0.070-0.192 0.353-0.956 0.629-1.698l0.501-1.35-1.5-0.024 0.318-1.991c0.175-1.095 0.328-2.035 0.341-2.089l0.023-0.098z"></path></svg> 