<?xml version="1.0" encoding="UTF-8"?> <svg xmlns="http://www.w3.org/2000/svg" id="icon-price" viewBox="0 0 32 32" fill="currentColor" height="1em" width="1em"><path d="M0.448 31.935c-0.124-0.036-0.304-0.209-0.362-0.347-0.036-0.087-0.044-1.161-0.044-6.261 0-3.386 0.009-6.205 0.020-6.266 0.022-0.12-0.56 0.465 11.679-11.744 3.289-3.281 6.192-6.17 6.452-6.421 0.387-0.374 0.521-0.481 0.74-0.594 0.7-0.363 1.501-0.363 2.202-0 0.262 0.136 0.366 0.237 5.182 5.027 2.703 2.689 5.002 4.997 5.109 5.129 0.225 0.278 0.351 0.511 0.457 0.853 0.062 0.2 0.076 0.315 0.076 0.651 0 0.446-0.060 0.712-0.244 1.076-0.189 0.374 1.059-0.892-14.057 14.264l-4.656 4.668-6.228-0.003c-3.489-0.002-6.271-0.016-6.327-0.032zM21.55 21.785c4.954-4.974 9.046-9.106 9.095-9.181 0.098-0.151 0.19-0.461 0.19-0.642 0-0.184-0.092-0.491-0.196-0.651-0.052-0.081-2.306-2.355-5.009-5.054-5.558-5.551-5.019-5.064-5.598-5.064-0.572 0-0.215-0.31-4.171 3.63-1.918 1.91-6.005 5.988-9.084 9.062l-5.597 5.589v11.357h11.362zM7.243 27.18c-0.338-0.042-0.614-0.124-0.929-0.277-0.745-0.363-1.255-0.971-1.502-1.792-0.079-0.261-0.088-0.346-0.088-0.766 0-0.418 0.010-0.506 0.087-0.759 0.258-0.851 0.792-1.476 1.569-1.835 0.76-0.351 1.727-0.325 2.485 0.066 1.585 0.819 2.033 2.864 0.938 4.285-0.587 0.762-1.613 1.194-2.56 1.078zM8.025 25.985c0.686-0.189 1.18-0.798 1.23-1.516 0.036-0.521-0.123-0.945-0.494-1.317-0.359-0.36-0.703-0.503-1.209-0.504-0.669-0.001-1.235 0.353-1.531 0.959-0.505 1.030 0.152 2.261 1.3 2.433 0.205 0.031 0.467 0.010 0.704-0.055zM18.795 20.059c-0.018-0.005-0.077-0.019-0.13-0.031-0.133-0.029-6.282-6.16-6.373-6.355-0.109-0.232-0.065-0.468 0.121-0.642 0.169-0.158 0.402-0.201 0.608-0.111 0.061 0.027 1.403 1.346 3.222 3.169 2.52 2.525 3.124 3.147 3.156 3.248 0.075 0.238-0.053 0.551-0.266 0.648-0.115 0.053-0.283 0.089-0.337 0.073zM21.842 16.781c-0.045-0.018-1.478-1.428-3.186-3.134-2.499-2.497-3.114-3.129-3.157-3.24-0.102-0.266 0.022-0.576 0.284-0.712 0.155-0.080 0.387-0.061 0.553 0.047 0.080 0.052 1.518 1.47 3.197 3.153 2.779 2.784 3.056 3.072 3.090 3.202 0.101 0.386-0.155 0.723-0.545 0.718-0.086-0.001-0.193-0.016-0.238-0.034zM25.001 13.497c-0.080-0.052-1.518-1.47-3.197-3.153-2.795-2.801-3.056-3.071-3.092-3.205-0.044-0.166-0.007-0.372 0.092-0.506 0.135-0.183 0.448-0.264 0.682-0.177 0.052 0.019 1.45 1.392 3.196 3.136 2.512 2.51 3.114 3.129 3.157 3.24 0.195 0.509-0.377 0.963-0.837 0.664z"></path></svg> 